<svg width="28" height="28" viewBox="0 0 28 28" fill="none" xmlns="http://www.w3.org/2000/svg">
<path d="M5.1097 17.7333C4.04869 19.571 3.51834 20.4902 3.59759 21.2442C3.66672 21.9018 4.01188 22.4993 4.54687 22.888C5.16002 23.3335 6.22037 23.3335 8.34093 23.3335H19.661C21.7816 23.3335 22.8418 23.3335 23.4549 22.888C23.9899 22.4993 24.3352 21.9018 24.4044 21.2442C24.4836 20.4902 23.9534 19.571 22.8924 17.7333L17.2344 7.93325C16.1734 6.09554 15.6426 5.17684 14.95 4.86848C14.3459 4.59951 13.6557 4.59951 13.0515 4.86848C12.3592 5.17671 11.8288 6.09542 10.7687 7.9316L5.1097 17.7333Z" fill="#FFAE38"/>
<path d="M14.001 10.5001V15.1668M5.1097 17.7333C4.04869 19.571 3.51834 20.4902 3.59759 21.2442C3.66672 21.9018 4.01188 22.4993 4.54687 22.888C5.16002 23.3335 6.22037 23.3335 8.34093 23.3335H19.661C21.7816 23.3335 22.8418 23.3335 23.4549 22.888C23.9899 22.4993 24.3352 21.9018 24.4044 21.2442C24.4836 20.4902 23.9534 19.571 22.8924 17.7333L17.2344 7.93325C16.1734 6.09554 15.6426 5.17684 14.95 4.86848C14.3459 4.59951 13.6557 4.59951 13.0515 4.86848C12.3592 5.17671 11.8288 6.09542 10.7687 7.9316L5.1097 17.7333ZM14.0602 18.6668V18.7835L13.9429 18.7837V18.6668H14.0602Z" stroke="#111928" stroke-linecap="round" stroke-linejoin="round"/>
</svg>
