<?xml version="1.0" standalone="no"?>
<!DOCTYPE svg PUBLIC "-//W3C//DTD SVG 1.1//EN" "http://www.w3.org/Graphics/SVG/1.1/DTD/svg11.dtd" >
<svg xmlns="http://www.w3.org/2000/svg">
<metadata>Generated by IcoMoon</metadata>
<defs>
<font id="GP-Icons" horiz-adv-x="1024">
<font-face units-per-em="1024" ascent="960" descent="-64" />
<missing-glyph horiz-adv-x="1024" />
<glyph unicode="&#x20;" horiz-adv-x="512" d="" />
<glyph unicode="&#xe900;" glyph-name="soc-skype" d="M988.105 339.131c7.1 33.529 11.045 67.846 11.045 103.347 0 265.861-215.766 481.627-481.627 481.627-28.006 0-55.618-2.367-82.441-7.1-42.995 27.217-93.88 42.995-148.709 42.995-154.231 0-279.273-125.042-279.273-279.273 0-51.673 14.2-99.797 38.262-141.214-6.311-31.162-9.861-63.507-9.861-96.641 0-265.861 215.766-481.627 481.627-481.627 29.978 0 59.562 2.761 88.357 7.889 39.445-21.3 84.413-33.134 132.142-33.134 154.231 0 279.273 125.042 279.273 279.273 0 44.573-10.256 86.78-28.795 123.858zM764.45 212.512c-22.089-31.556-55.223-56.407-97.824-74.157-42.206-17.75-92.696-26.428-150.287-26.428-69.029 0-127.014 12.228-172.376 36.29-32.345 17.356-59.168 41.023-79.285 70.213-20.512 29.584-30.767 58.773-30.767 87.174 0 17.75 6.706 32.74 20.117 45.362 13.017 12.622 29.978 18.539 50.096 18.539 16.567 0 30.767-4.733 42.601-14.595 11.045-9.467 20.512-23.273 28.401-41.418 8.678-19.723 17.75-35.895 27.612-48.912 9.467-12.622 23.273-22.878 40.234-31.162 17.356-8.284 41.023-12.622 69.818-12.622 39.84 0 72.579 8.678 97.035 25.245 24.062 16.173 35.501 35.895 35.501 59.957 0 18.934-5.917 33.923-18.539 45.757-13.017 12.228-30.373 21.695-51.279 28.401-21.695 6.706-51.673 14.2-88.357 22.089-50.096 10.65-92.302 23.273-126.225 37.867-34.712 14.595-62.324 35.106-82.835 60.746-20.512 26.034-31.162 58.379-31.162 96.641 0 36.29 11.045 69.029 32.74 97.43 21.695 28.006 52.857 50.096 93.485 64.69 39.84 14.595 87.569 22.484 141.214 22.484 42.995 0 80.863-5.128 112.419-14.595 31.951-9.861 58.379-23.273 79.68-39.84s37.079-34.317 46.94-52.462c9.861-18.539 14.989-37.079 14.989-54.829 0-17.356-6.706-32.74-19.723-46.545s-29.978-20.512-49.307-20.512c-17.75 0-31.951 4.339-41.418 13.017-9.072 7.889-18.539 20.512-28.795 38.262-11.834 22.878-26.428 40.629-43.39 53.646-16.173 12.228-43.39 18.539-80.468 18.539-34.317 0-62.718-7.1-83.624-20.512-20.117-13.017-29.978-28.401-29.978-46.151 0-11.045 3.156-20.117 9.467-28.006 6.706-8.284 16.567-15.778 28.795-21.695 12.622-6.311 25.639-11.439 38.656-14.989 13.411-3.55 35.895-9.072 66.663-16.173 39.051-8.284 74.946-17.75 106.502-28.006 31.951-10.256 59.957-22.878 82.441-37.473 22.878-14.989 41.418-34.317 54.435-57.196 13.017-23.273 19.723-51.673 19.723-84.807-0.394-41.418-11.439-77.707-33.923-109.263z" />
<glyph unicode="&#xe901;" glyph-name="soc-tg" d="M819.2 772.267l-695.467-268.8c-46.933-17.067-46.933-46.933-8.533-55.467l174.933-55.467 68.267-204.8c8.533-21.333 4.267-29.867 25.6-29.867 17.067 0 25.6 8.533 34.133 17.067 4.267 4.267 42.667 42.667 85.333 85.333l179.2-132.267c34.133-17.067 55.467-8.533 64 29.867l119.467 558.933c12.8 46.933-17.067 72.533-46.933 55.467zM729.6 644.267l-332.8-302.933-12.8-140.8-68.267 204.8 392.533 247.467c17.067 12.8 34.133 4.267 21.333-8.533z" />
<glyph unicode="&#xe902;" glyph-name="soc-tg-stroke-bold" d="M986.099 768.235c13.564 66.124-51.383 121.073-114.347 96.746l-771.806-298.198c-70.314-27.167-73.447-125.491-5.006-157.077l168.078-77.577 79.957-279.846c4.153-14.537 15.688-25.792 30.322-29.585 14.634-3.789 30.183 0.444 40.873 11.136l123.165 123.166 172.531-129.399c50.082-37.559 122.214-10.202 134.793 51.123l141.44 689.511zM130.701 487.185l771.806 298.197-141.44-689.515-202.133 151.603c-16.986 12.74-40.755 11.051-55.77-3.964l-52.753-52.753 15.851 87.172 310.575 310.574c15.117 15.115 16.713 39.081 3.738 56.068s-36.514 21.752-55.074 11.147l-428.913-245.091-165.885 76.561zM348.883 342.225l25.872-90.556 9.933 54.635c1.553 8.538 5.672 16.401 11.809 22.537l94.715 94.711-142.33-81.327z" />
<glyph unicode="&#xe903;" glyph-name="soc-tumblr" d="M825.063 177.373c-5.328 2.884-11.826 2.606-16.909-0.73-46.741-30.703-94.040-46.268-140.575-46.268-25.362 0-47.187 5.698-66.844 17.497-13.289 7.815-22.092 17.834-26.885 30.578-3.657 9.837-8.027 36.005-8.027 104.841v237.651h218.568c9.124 0 16.516 7.396 16.516 16.516v155.582c0 9.124-7.393 16.516-16.516 16.516h-218.568v233.928c0 9.124-7.393 16.516-16.516 16.516h-140.995c-8.334 0-15.367-6.213-16.387-14.488-6.065-48.99-17.18-89.659-33.065-120.901-15.671-30.988-36.801-57.892-62.821-79.991-25.904-22.089-57.645-39.305-94.35-51.17-6.818-2.203-11.439-8.552-11.439-15.717v-140.275c0-9.12 7.393-16.516 16.516-16.516h93.045v-331.105c0-47.87 5.031-83.77 15.38-109.727 10.432-26.277 29.167-51.187 55.702-74.052 26.168-22.465 58.031-39.982 94.703-52.052 36.24-11.951 78.386-18.009 125.265-18.009 41.013 0 79.743 4.192 115.117 12.46 35.444 8.304 75.244 22.825 118.292 43.157 5.781 2.728 9.464 8.545 9.464 14.934v156.289c0.007 6.075-3.32 11.657-8.671 14.537z" />
<glyph unicode="&#xe904;" glyph-name="soc-tw" d="M778.411 864h141.141l-308.352-352.427 362.752-479.573h-284.032l-222.464 290.859-254.549-290.859h-141.227l329.813 376.96-347.989 455.040h291.243l201.088-265.856zM728.875 116.48h78.208l-504.832 667.477h-83.925z" />
<glyph unicode="&#xe905;" glyph-name="soc-tw-old" d="M1000.788 770.434c-16.087-7.135-32.626-13.157-49.525-18.046 20.008 22.627 35.262 49.251 44.574 78.386 2.088 6.53-0.076 13.679-5.444 17.95-5.361 4.274-12.81 4.786-18.713 1.288-35.89-21.286-74.61-36.583-115.21-45.528-40.897 39.962-96.444 62.705-153.868 62.705-121.212 0-219.826-98.611-219.826-219.82 0-9.546 0.604-19.040 1.8-28.401-150.412 13.206-290.248 87.136-386.273 204.926-3.422 4.198-8.694 6.461-14.092 6.028-5.401-0.423-10.253-3.468-12.982-8.149-19.476-33.419-29.772-71.64-29.772-110.529 0-52.967 18.911-103.223 52.316-142.491-10.157 3.518-20.014 7.915-29.422 13.137-5.051 2.811-11.214 2.768-16.232-0.109-5.021-2.877-8.169-8.169-8.301-13.953-0.023-0.974-0.023-1.949-0.023-2.937 0-79.063 42.552-150.244 107.609-189.040-5.589 0.558-11.175 1.368-16.724 2.428-5.721 1.093-11.604-0.912-15.462-5.275-3.865-4.36-5.143-10.438-3.363-15.988 24.081-75.181 86.079-130.481 161.029-147.34-62.163-38.935-133.252-59.329-207.879-59.329-15.571 0-31.232 0.915-46.559 2.728-7.614 0.905-14.894-3.591-17.487-10.831-2.593-7.244 0.155-15.32 6.633-19.473 95.87-61.47 206.722-93.96 320.568-93.96 223.807 0 363.814 105.538 441.853 194.074 97.313 110.397 153.124 256.522 153.124 400.903 0 6.032-0.092 12.123-0.277 18.194 38.393 28.926 71.449 63.934 98.347 104.171 4.086 6.111 3.643 14.187-1.090 19.813-4.727 5.629-12.605 7.449-19.33 4.469z" />
<glyph unicode="&#xe906;" glyph-name="soc-vb" d="M154.031 958.777c-19.814-2.186-42.147-9.303-61.74-19.483-46.088-24.303-80.354-71.593-89.439-123.699-1.97-11.058-2.080-25.946-2.080-370.010v-358.514l2.519-11.165c15.762-71.266 66.119-121.623 137.385-137.385l11.165-2.519h720.314l11.165 2.519c71.264 15.762 121.621 66.119 137.385 137.385l2.517 11.165v358.512c0 344.064-0.11 358.952-2.080 370.008-2.736 15.985-8.21 32.074-16.53 48.714-25.944 52.218-78.052 88.344-136.508 94.694-13.357 1.422-701.158 1.312-714.074-0.219zM545.165 776.731c37.658-4.708 68.091-13.794 101.48-30.104 32.84-16.093 53.859-31.309 81.664-59.006 26.054-26.162 40.506-45.978 55.831-76.738 21.348-42.913 33.498-93.924 35.576-150.084 0.768-19.154 0.221-23.426-4.16-28.898-8.318-10.621-26.6-8.868-32.84 3.063-1.97 3.94-2.519 7.333-3.175 22.662-1.097 23.535-2.736 38.751-6.020 56.924-12.918 71.264-47.073 128.188-101.59 169.021-45.429 34.154-92.392 50.796-153.913 54.407-20.799 1.204-24.413 1.97-29.119 5.582-8.758 6.898-9.195 23.099-0.768 30.651 5.145 4.71 8.758 5.366 26.602 4.818 9.305-0.327 22.987-1.422 30.431-2.299zM294.917 764.907c3.833-1.314 9.744-4.379 13.138-6.569 20.799-13.792 78.708-87.903 97.647-124.905 10.836-21.126 14.45-36.781 11.058-48.385-3.506-12.48-9.305-19.048-35.251-39.957-10.4-8.429-20.143-17.076-21.673-19.375-3.943-5.693-7.119-16.859-7.119-24.74 0.112-18.281 11.933-51.45 27.48-76.957 12.039-19.814 33.606-45.21 54.952-64.697 25.069-22.989 47.182-38.641 72.141-51.013 32.074-15.981 51.671-20.034 66.011-13.355 3.611 1.641 7.442 3.831 8.649 4.814 1.093 0.987 9.522 11.277 18.719 22.662 17.732 22.333 21.782 25.944 33.935 30.104 15.437 5.255 31.199 3.833 47.071-4.268 12.043-6.242 38.316-22.552 55.283-34.374 22.331-15.654 70.060-54.627 76.521-62.4 11.385-14.011 13.355-31.963 5.691-51.779-8.1-20.907-39.628-60.099-61.632-76.848-19.924-15.108-34.043-20.907-52.654-21.784-15.325-0.766-21.673 0.548-41.27 8.649-153.695 63.383-276.411 157.965-373.841 287.906-50.901 67.872-89.656 138.261-116.149 211.277-15.433 42.584-16.199 61.084-3.502 82.868 5.474 9.195 28.792 31.965 45.758 44.664 28.244 21.019 41.272 28.792 51.671 30.98 7.115 1.534 19.483 0.329 27.366-2.519zM552.719 697.364c66.45-9.742 117.9-40.613 151.618-90.751 18.939-28.244 30.76-61.413 34.81-96.989 1.422-13.028 1.422-36.785-0.108-40.725-1.426-3.721-6.022-8.756-9.965-10.836-4.268-2.19-13.353-1.97-18.388 0.658-8.429 4.268-10.948 11.056-10.948 29.446 0 28.353-7.335 58.238-20.032 81.446-14.452 26.491-35.468 48.385-61.084 63.602-22.004 13.136-54.517 22.879-84.184 25.288-10.729 0.873-16.639 3.063-20.69 7.771-6.24 7.115-6.898 16.749-1.643 24.74 5.693 8.868 14.45 10.29 40.613 6.349zM576.037 614.715c21.565-4.599 38.097-12.809 52.218-26.056 18.171-17.184 28.134-37.983 32.511-67.87 2.957-19.485 1.753-27.149-5.145-33.498-6.459-5.911-18.388-6.13-25.615-0.548-5.255 3.943-6.896 8.102-8.1 19.377-1.422 14.998-4.050 25.506-8.537 35.249-9.636 20.69-26.602 31.418-55.283 34.922-13.467 1.641-17.517 3.175-21.896 8.318-7.991 9.526-4.926 24.959 6.13 30.653 4.162 2.080 5.913 2.299 15.108 1.751 5.691-0.327 14.123-1.312 18.61-2.297z" />
<glyph unicode="&#xe907;" glyph-name="soc-vb-stroke" d="M609.513 960h-195.046c-204.289 0-370.493-166.165-370.493-370.415v-175.701c0-152.105 93.467-288.805 234.008-344.479v-113.903c0-7.722 4.544-14.704 11.603-17.824 2.535-1.131 5.226-1.677 7.898-1.677 4.739 0 9.438 1.736 13.085 5.051l113.084 102.418h185.861c204.289 0 370.493 166.165 370.493 370.415v175.701c0 204.25-166.204 370.415-370.493 370.415zM941.005 413.884c0-182.741-148.693-331.414-331.492-331.414h-193.388c-4.836 0-9.497-1.794-13.085-5.051l-86.056-77.944v83.443c0 8.268-5.207 15.64-13.007 18.37-132.176 46.743-221.001 172.366-221.001 312.596v175.701c0 182.741 148.712 331.414 331.492 331.414h195.046c182.799 0 331.492-148.673 331.492-331.414v-175.701zM769.711 365.366l-119.851 77.847c-13.104 8.522-28.705 11.408-43.974 8.249-15.289-3.218-28.432-12.246-36.954-25.409l-5.636-8.658c-51.872 17.141-109.067 39.040-143.31 138.162l14.177 12.324c24.337 21.158 26.891 58.171 5.733 82.546l-93.759 107.858c-7.059 8.132-19.384 8.97-27.515 1.931l-58.873-51.17c-51.638-44.891-27.515-111.29-19.579-133.112 0.351-0.975 0.78-1.911 1.287-2.828 2.048-3.666 50.936-90.912 129.894-171.333 79.27-80.752 222.386-155.323 226.773-157.487 16.342-10.608 34.731-15.698 52.925-15.698 31.942 0 63.26 15.659 81.942 44.364l42.472 65.405c5.85 9.068 3.276 21.139-5.753 27.008zM700.269 294.208c-17.57-27.067-53.88-34.75-82.546-16.264-1.424 0.741-143.603 74.785-218.544 151.13-70.046 71.353-116.556 150.623-122.893 161.68-15.445 43.311-12.714 69.929 9.048 88.845l44.169 38.377 80.967-93.135c7.196-8.268 6.357-20.359-1.872-27.515l-23.927-20.788c-5.831-5.070-8.132-13.085-5.85-20.456 40.795-132.566 120.124-158.599 178.041-177.612l8.444-2.789c8.444-2.847 17.687 0.41 22.523 7.859l13.826 21.295c2.847 4.407 7.215 7.391 12.285 8.463 5.090 1.092 10.277 0.078 14.684-2.789l103.51-67.219-31.864-49.083zM556.51 643.173c-10.374 2.984-21.158-3.042-24.103-13.416-2.945-10.355 3.062-21.139 13.416-24.083 29.056-8.268 52.203-31.455 60.394-60.53 2.418-8.58 10.238-14.216 18.76-14.216 1.755 0 3.53 0.234 5.304 0.722 10.355 2.925 16.4 13.689 13.475 24.064-11.837 42.004-45.281 75.526-87.246 87.461zM704.91 526.714c1.755 0 3.53 0.234 5.304 0.722 10.374 2.925 16.4 13.709 13.475 24.064-23.011 81.571-87.929 146.626-169.441 169.831-10.355 2.984-21.139-3.081-24.083-13.436s3.062-21.139 13.416-24.083c68.584-19.501 123.205-74.278 142.569-142.901 2.438-8.58 10.238-14.196 18.76-14.196zM545.843 812.146c-10.374 2.984-21.158-3.042-24.103-13.436-2.945-10.355 3.062-21.139 13.416-24.083 116.205-33.054 208.774-125.838 241.574-242.12 2.418-8.58 10.238-14.216 18.76-14.216 1.755 0 3.53 0.234 5.304 0.722 10.355 2.925 16.4 13.709 13.475 24.064-36.447 129.231-139.293 232.312-268.427 269.070z" />
<glyph unicode="&#xe908;" glyph-name="soc-vb-stroke-bold" d="M554.667 789.333c-23.565 0-42.667-19.103-42.667-42.667s19.102-42.667 42.667-42.667c54.306 0 96.243-17.915 124.497-46.17s46.17-70.193 46.17-124.497c0-23.565 19.102-42.667 42.667-42.667s42.667 19.102 42.667 42.667c0 73.696-24.751 138.425-71.164 184.837s-111.142 71.163-184.836 71.163zM213.931 618.405c4.876 38.559 54.988 90.965 94.758 85.15l-0.064 0.064c33.242-6.317 60.535-56.35 78.521-89.324 2.955-5.417 5.658-10.374 8.096-14.6 12.242-21.733 4.293-43.753-7.123-53.044-1.32-1.064-2.704-2.162-4.128-3.293-15.191-12.060-34.929-27.727-30.309-43.45 8.984-30.575 115.651-137.242 168.114-167.565 16.064-9.284 28.553 8.747 39.249 24.188 2.526 3.648 4.954 7.151 7.305 10.116 8.934 11.93 30.972 19.059 52.655 7.283 32.384-18.859 62.891-40.777 91.102-65.451 14.089-11.776 17.395-29.18 7.633-47.573-17.195-32.397-66.927-75.119-103.027-66.436-63.053 15.159-318.046 114.010-399.952 400.388-4.289 12.614-3.579 17.924-2.963 22.532l0.133 1.015zM554.667 661.333c-23.565 0-42.667-19.103-42.667-42.667s19.102-42.667 42.667-42.667c7.458 0 18.483-4.158 28.497-14.17 10.010-10.012 14.17-21.040 14.17-28.497 0-23.565 19.102-42.667 42.667-42.667s42.667 19.102 42.667 42.667c0 35.21-17.173 66.848-39.164 88.837-21.986 21.988-53.628 39.163-88.836 39.163zM320.743-56.798c1.214-0.67 2.46-1.28 3.733-1.826 23.155-9.958 51.739 12.275 108.906 56.738l57.284 44.553c114.705-3.797 213.931 11.255 290.645 38.097 85.79 30.020 153.242 97.472 183.262 183.262 41.37 118.225 41.37 335.064 0 453.289-30.020 85.791-97.472 153.243-183.262 183.263-136.606 47.8-404.566 46.908-538.621 0-85.791-30.020-153.243-97.472-183.263-183.263-41.369-118.225-41.369-335.064 0-453.289 30.020-85.79 97.472-153.242 183.263-183.262 16.83-5.888 35.654-12.348 55.976-16.764 0-72.422 0-108.634 22.077-120.798zM384 67.81v47.778c0 10.035-6.997 18.709-16.812 20.809-32.508 6.95-64.82 13.892-96.314 24.913-61.28 21.44-109.46 69.623-130.902 130.901-16.294 46.566-26.238 119.723-26.238 198.46 0 78.736 9.944 151.895 26.238 198.46 21.443 61.279 69.623 109.46 130.902 130.902 54.086 18.925 143.723 30.62 240.264 30.727 96.529 0.107 186.722-11.388 241.988-30.727 61.278-21.443 109.461-69.623 130.901-130.902 16.294-46.565 26.24-119.724 26.24-198.46s-9.946-151.893-26.24-198.46c-21.44-61.278-69.623-109.461-130.901-130.901-90.953-31.825-187.409-35.401-282.773-32.576-4.983 0.145-9.869-1.438-13.803-4.497l-72.55-56.427z" />
<glyph unicode="&#xe909;" glyph-name="soc-vk" d="M558.080 128.64c-350.080 0-549.76 240-558.080 639.36h175.36c5.76-293.12 135.040-417.28 237.44-442.88v442.88h165.12v-252.8c101.12 10.88 207.36 126.080 243.2 252.8h165.12c-27.52-133.12-108.8-248.32-224.64-318.72 129.28-64.64 225.28-181.12 263.040-320.64h-181.76c-34.56 122.24-138.88 212.48-264.96 228.48v-228.48s-19.84 0-19.84 0z" />
<glyph unicode="&#xe90a;" glyph-name="soc-wa" d="M810.035 236.993c-12.339-34.929-61.389-63.814-100.506-72.265-26.778-5.685-61.696-10.192-179.354 38.565-132.147 54.749-315.648 249.777-315.648 379.557 0 66.068 38.093 142.993 104.704 142.993 32.051 0 39.117-0.615 49.664-25.915 12.339-29.808 42.445-103.25 46.029-110.779 14.797-30.883-15.053-48.962-36.71-75.85-6.912-8.092-14.746-16.85-5.99-31.907 8.704-14.75 38.81-63.815 83.046-103.199 57.139-50.908 103.475-67.143 120.064-74.057 12.339-5.122 27.085-3.944 36.096 5.685 11.418 12.343 25.6 32.829 40.038 53.008 10.189 14.443 23.142 16.236 36.71 11.114 9.165-3.175 125.645-57.259 130.56-65.914 3.635-6.3 3.635-36.107-8.704-71.036zM512.102 960h-0.256c-282.266 0-511.846-229.65-511.846-512 0-111.957 36.096-215.821 97.485-300.071l-63.795-190.265 196.762 62.893c80.947-53.572 177.562-84.557 281.651-84.557 282.266 0 511.898 229.65 511.898 512s-229.632 512-511.898 512z" />
<glyph unicode="&#xe90b;" glyph-name="soc-wa-stroke-bold" d="M256.597 618.405c4.876 38.559 54.988 90.965 94.758 85.15l-0.064 0.064c38.704-7.355 69.342-73.97 86.618-103.924 12.241-21.733 4.292-43.753-7.125-53.044-15.403-12.414-39.488-29.544-34.435-46.743 8.984-30.575 115.651-137.242 168.114-167.565 19.857-11.477 34.257 18.795 46.554 34.304 8.934 11.93 30.972 19.059 52.655 7.283 32.384-18.859 62.891-40.777 91.102-65.451 14.089-11.776 17.395-29.18 7.633-47.573-17.195-32.397-66.927-75.119-103.027-66.436-63.053 15.159-318.046 114.010-399.952 400.388-4.606 13.548-3.447 18.67-2.83 23.547zM512-21.333c259.204 0 469.333 210.129 469.333 469.333 0 259.206-210.129 469.333-469.333 469.333-259.206 0-469.333-210.128-469.333-469.333 0-135.539 36.119-234.325 128-320v-96.593c0-63.437 66.757-104.695 123.496-76.326l89.838 44.919c46.908-15.731 75.793-21.333 128-21.333zM256 165.107l-27.138 25.306c-71.385 66.56-100.862 140.975-100.862 257.587 0 212.077 171.923 384 384 384 212.079 0 384-171.923 384-384 0-212.079-171.921-384-384-384-42.057 0-61.781 3.797-100.866 16.905l-33.599 11.268-121.535-60.766v133.7z" />
<glyph unicode="&#xe90c;" glyph-name="soc-wechat" d="M671.974 625.565c16.16 0 31.949-1.343 47.52-3.263-28.154 123.644-158.018 217.167-314.177 217.167-176.752 0-320.005-119.729-320.005-267.38 0-85.128 47.896-160.654 122.187-209.522l-42.189-84.602 114.928 49.36c24.645-8.778 50.254-16.003 77.607-19.37-3.738 16.32-5.862 33.048-5.862 50.216 0 147.442 143.513 267.393 319.99 267.393zM511.985 719.156c22.084 0 39.996-17.967 39.996-40.113 0-22.154-17.909-40.107-39.996-40.107-22.098 0-40.001 17.953-40.001 40.107 0 22.148 17.903 40.113 40.001 40.113zM298.647 638.936c-22.089 0-39.999 17.953-39.999 40.107 0 22.146 17.912 40.113 39.999 40.113s40.001-17.967 40.001-40.113c-0.002-22.154-17.916-40.107-40.001-40.107zM938.643 358.175c0 118.139-119.418 213.913-266.669 213.913s-266.657-95.774-266.657-213.913c0-118.131 119.406-213.907 266.657-213.907 24.218 0 47.251 3.424 69.6 8.282l143.738-61.754-49.709 99.616c62.298 39.155 103.040 99.366 103.040 167.763zM591.98 371.546c-22.086 0-40.001 17.959-40.001 40.116 0 22.146 17.913 40.099 40.001 40.099 22.094 0 39.997-17.961 39.997-40.099 0-22.159-17.907-40.116-39.997-40.116zM751.974 371.546c-22.093 0-39.994 17.959-39.994 40.116 0 22.146 17.894 40.099 39.994 40.099s40.006-17.961 40.006-40.099c0-22.159-17.907-40.116-40.006-40.116z" />
<glyph unicode="&#xe90d;" glyph-name="soc-yt" d="M409.008 315.603v287.315c102.001-47.996 181.001-94.359 274.434-144.347-77.062-42.737-172.433-90.683-274.434-142.968zM977.459 745.836c-17.595 23.181-47.583 41.206-79.51 47.18-93.841 17.82-679.275 17.871-773.065 0-25.602-4.799-48.399-16.39-67.984-34.415-82.519-76.59-56.662-487.319-36.771-553.85 8.364-28.798 19.176-49.58 32.793-63.213 17.544-18.024 41.565-30.432 69.157-35.997 77.266-15.982 475.325-24.918 774.238-2.4 27.54 4.799 51.918 17.615 71.146 36.406 76.297 76.284 71.095 510.092 9.996 606.289z" />
<glyph unicode="&#xe90e;" glyph-name="soc-yt-stroke-bold" d="M405.169 655.712c-13.205 7.546-29.429 7.492-42.584-0.142s-21.251-21.693-21.251-36.903v-341.333c0-15.211 8.096-29.269 21.251-36.902s29.379-7.689 42.584-0.141l298.665 170.667c13.295 7.595 21.5 21.73 21.5 37.043s-8.205 29.449-21.5 37.043l-298.665 170.668zM596.668 448l-170.001-97.143v194.288l170.001-97.144zM0 448c0-159.987 0-239.983 40.743-296.060 13.158-18.112 29.085-34.039 47.196-47.198 56.078-40.742 136.073-40.742 296.061-40.742h256c159.987 0 239.983 0 296.060 40.742 18.112 13.158 34.039 29.086 47.198 47.198 40.742 56.077 40.742 136.073 40.742 296.060s0 239.983-40.742 296.061c-13.158 18.111-29.086 34.038-47.198 47.196-56.077 40.743-136.073 40.743-296.060 40.743h-256c-159.988 0-239.983 0-296.061-40.743-18.111-13.158-34.038-29.085-47.196-47.196-40.743-56.078-40.743-136.073-40.743-296.061zM384 746.667h256c81.894 0 136.461-0.117 177.805-4.596 39.748-4.306 57.033-11.808 68.1-19.849 10.863-7.895 20.42-17.451 28.318-28.317 8.038-11.068 15.539-28.352 19.849-68.098 4.48-41.343 4.595-95.911 4.595-177.805s-0.115-136.461-4.595-177.805c-4.309-39.748-11.81-57.033-19.849-68.1-7.898-10.863-17.455-20.42-28.318-28.318-11.068-8.038-28.352-15.539-68.1-19.849-41.344-4.48-95.91-4.595-177.805-4.595h-256c-81.895 0-136.462 0.115-177.805 4.595-39.747 4.309-57.030 11.81-68.098 19.849-10.866 7.898-20.422 17.455-28.317 28.318-8.041 11.068-15.543 28.352-19.849 68.1-4.479 41.344-4.596 95.91-4.596 177.805s0.117 136.462 4.596 177.805c4.306 39.747 11.808 57.030 19.849 68.098 7.895 10.866 17.451 20.422 28.317 28.317 11.068 8.041 28.352 15.543 68.098 19.849 41.343 4.479 95.91 4.596 177.805 4.596z" />
<glyph unicode="&#xe90f;" glyph-name="square" d="M832 584c14.852 0 29.094 5.9 39.599 16.402 10.5 10.502 16.401 24.746 16.401 39.598v128c0 14.852-5.901 29.096-16.401 39.598-10.505 10.502-24.747 16.402-39.599 16.402h-128c-14.852 0-29.094-5.9-39.599-16.402-10.5-10.502-16.401-24.746-16.401-39.598v-40h-272v40c0 14.852-5.9 29.096-16.402 39.598s-24.746 16.402-39.598 16.402h-128c-14.852 0-29.096-5.9-39.598-16.402s-16.402-24.746-16.402-39.598v-128c0-14.852 5.9-29.096 16.402-39.598s24.746-16.402 39.598-16.402h40v-272h-40c-14.852 0-29.096-5.901-39.598-16.401-10.502-10.505-16.402-24.747-16.402-39.599v-128c0-14.852 5.9-29.094 16.402-39.599 10.502-10.5 24.746-16.401 39.598-16.401h128c14.852 0 29.096 5.901 39.598 16.401 10.502 10.505 16.402 24.747 16.402 39.599v40h272v-40c0-14.852 5.901-29.094 16.401-39.599 10.505-10.5 24.747-16.401 39.599-16.401h128c14.852 0 29.094 5.901 39.599 16.401 10.5 10.505 16.401 24.747 16.401 39.599v128c0 14.852-5.901 29.094-16.401 39.599-10.505 10.5-24.747 16.401-39.599 16.401h-40v272h40zM696 768c0 2.122 0.845 4.157 2.342 5.657 1.502 1.501 3.537 2.343 5.658 2.343h128c2.121 0 4.156-0.843 5.658-2.343 1.498-1.5 2.342-3.535 2.342-5.657v-128c0-2.122-0.845-4.157-2.342-5.657-1.502-1.501-3.537-2.343-5.658-2.343h-128c-2.121 0-4.156 0.843-5.658 2.343-1.498 1.5-2.342 3.535-2.342 5.657v128zM184 640v128c0 2.122 0.843 4.157 2.343 5.657s3.535 2.343 5.657 2.343h128c2.122 0 4.157-0.843 5.657-2.343s2.343-3.535 2.343-5.657v-128c0-2.122-0.843-4.157-2.343-5.657s-3.535-2.343-5.657-2.343h-128c-2.122 0-4.157 0.843-5.657 2.343s-2.343 3.535-2.343 5.657zM328 128c0-2.121-0.843-4.156-2.343-5.658-1.5-1.498-3.535-2.342-5.657-2.342h-128c-2.122 0-4.157 0.845-5.657 2.342-1.501 1.502-2.343 3.537-2.343 5.658v128c0 2.121 0.843 4.156 2.343 5.658 1.5 1.498 3.535 2.342 5.657 2.342h128c2.122 0 4.157-0.845 5.657-2.342 1.501-1.502 2.343-3.537 2.343-5.658v-128zM840 256v-128c0-2.121-0.845-4.156-2.342-5.658-1.502-1.498-3.537-2.342-5.658-2.342h-128c-2.121 0-4.156 0.845-5.658 2.342-1.498 1.502-2.342 3.537-2.342 5.658v128c0 2.121 0.845 4.156 2.342 5.658 1.502 1.498 3.537 2.342 5.658 2.342h128c2.121 0 4.156-0.845 5.658-2.342 1.498-1.502 2.342-3.537 2.342-5.658zM744 312h-40c-14.852 0-29.094-5.901-39.599-16.401-10.5-10.505-16.401-24.747-16.401-39.599v-40h-272v40c0 14.852-5.9 29.094-16.402 39.599-10.502 10.5-24.746 16.401-39.598 16.401h-40v272h40c14.852 0 29.096 5.9 39.598 16.402s16.402 24.746 16.402 39.598v40h272v-40c0-14.852 5.901-29.096 16.401-39.598 10.505-10.502 24.747-16.402 39.599-16.402h40v-272z" />
<glyph unicode="&#xe910;" glyph-name="thumbs-down" d="M951.322 330.918l-48 384.002c-2.662 21.282-13.005 40.859-29.086 55.053-16.077 14.194-36.787 22.027-58.236 22.027h-688c-14.852 0-29.096-5.9-39.598-16.402s-16.402-24.746-16.402-39.598v-352c0-14.852 5.9-29.094 16.402-39.599 10.502-10.5 24.746-16.401 39.598-16.401h177.16l153.361-306.718c1.993-3.994 5.056-7.351 8.849-9.694 3.797-2.347 8.166-3.588 12.629-3.588 40.311 0 78.976 16.013 107.482 44.518s44.518 67.17 44.518 107.482v72h232c12.48 0 24.815 2.654 36.19 7.787 11.371 5.129 21.525 12.621 29.786 21.978 8.256 9.353 14.43 20.356 18.112 32.282 3.678 11.921 4.783 24.491 3.234 36.873zM296 376h-168c-2.122 0-4.157 0.845-5.657 2.342-1.501 1.502-2.343 3.537-2.343 5.658v352c0 2.122 0.843 4.157 2.343 5.657s3.535 2.343 5.657 2.343h168v-368zM893.999 293.521c-3.738-4.275-8.35-7.697-13.525-10.027-5.18-2.334-10.795-3.524-16.474-3.494h-256c-6.366 0-12.471-2.53-16.969-7.031-4.501-4.497-7.031-10.603-7.031-16.969v-96c-0.004-25.101-9.084-49.353-25.566-68.284s-39.253-31.262-64.115-34.718l-150.319 300.681v386.321h472c9.749-0.003 19.157-3.565 26.466-10.017 7.305-6.452 12.006-15.35 13.214-25.023l48-383.998c0.738-5.632 0.252-11.349-1.417-16.777-1.673-5.423-4.489-10.428-8.265-14.665z" />
<glyph unicode="&#xe911;" glyph-name="thumbs-up" d="M967.955 604.625c-9.007 10.203-20.080 18.374-32.484 23.971s-25.861 8.493-39.471 8.494h-253.091v78.545c0 43.978-17.469 86.154-48.566 117.251s-73.277 48.567-117.253 48.567c-4.869 0.001-9.635-1.353-13.776-3.912-4.139-2.559-7.483-6.221-9.657-10.575l-167.302-334.604h-193.266c-16.202 0-31.741-6.436-43.198-17.893s-17.893-26.995-17.893-43.198v-384c0-16.202 6.436-31.739 17.893-43.199 11.457-11.455 26.995-17.892 43.198-17.892h750.545c23.398 0 45.992 8.546 63.53 24.027 17.543 15.486 28.826 36.845 31.73 60.062l52.364 418.907c1.685 13.509 0.479 27.223-3.537 40.231s-10.757 25.012-19.768 35.217zM84.364 87.273v384c0 2.315 0.919 4.534 2.556 6.171s3.856 2.556 6.171 2.556h183.273v-401.455h-183.273c-2.315 0-4.534 0.922-6.171 2.555-1.637 1.638-2.556 3.859-2.556 6.172zM939.287 535.68l-52.364-418.911c-1.317-10.547-6.447-20.257-14.415-27.294-7.973-7.038-18.237-10.924-28.872-10.929h-514.909v421.44l163.984 328.015c27.122-3.77 51.963-17.222 69.944-37.873s27.885-47.108 27.89-74.49v-104.727c0-6.944 2.76-13.603 7.671-18.513 4.906-4.91 11.567-7.668 18.511-7.668h279.273c6.186-0.002 12.302-1.319 17.939-3.864 5.641-2.545 10.673-6.26 14.764-10.898 4.096-4.638 7.154-10.093 8.979-16.005s2.374-12.142 1.606-18.281z" />
<glyph unicode="&#xe912;" glyph-name="train" d="M736 856h-448c-31.826 0-62.348-12.643-84.853-35.147s-35.147-53.027-35.147-84.853v-512c0-31.825 12.643-62.349 35.147-84.851 22.505-22.507 53.027-35.149 84.853-35.149h48l-67.2-89.6c-1.891-2.522-3.267-5.389-4.049-8.444s-0.955-6.229-0.51-9.353c0.446-3.119 1.502-6.118 3.107-8.832s3.73-5.082 6.252-6.972c2.522-1.89 5.391-3.268 8.444-4.049s6.23-0.956 9.35-0.508c3.12 0.444 6.122 1.498 8.834 3.106 2.712 1.604 5.081 3.729 6.972 6.251l88.8 118.4h232.002l88.798-118.4c3.819-5.094 9.506-8.461 15.808-9.357 6.298-0.9 12.702 0.738 17.792 4.557s8.457 9.506 9.357 15.804c0.9 6.302-0.738 12.706-4.557 17.796l-67.2 89.6h48c31.825 0 62.349 12.642 84.851 35.149 22.507 22.502 35.149 53.026 35.149 84.851v512c0 31.826-12.642 62.348-35.149 84.853-22.502 22.504-53.026 35.147-84.851 35.147zM288 808h448c19.098 0 37.41-7.586 50.91-21.088 13.504-13.503 21.090-31.816 21.090-50.912v-264h-592v264c0 19.095 7.586 37.409 21.088 50.912s31.816 21.088 50.912 21.088zM736 152h-448c-19.095 0-37.409 7.586-50.912 21.090-13.503 13.5-21.088 31.812-21.088 50.91v200h592v-200c0-19.098-7.586-37.41-21.090-50.91-13.5-13.504-31.812-21.090-50.91-21.090zM728 272c0-7.91-2.347-15.646-6.741-22.221-4.395-6.579-10.641-11.708-17.95-14.733-7.309-3.029-15.351-3.823-23.113-2.278s-14.886 5.355-20.48 10.948c-5.594 5.594-9.404 12.719-10.948 20.48s-0.751 15.804 2.278 23.113c3.025 7.309 8.154 13.555 14.733 17.95 6.575 4.395 14.31 6.741 22.221 6.741 10.607 0 20.783-4.215 28.284-11.716s11.716-17.677 11.716-28.284zM376 272c0-7.91-2.346-15.646-6.741-22.221-4.395-6.579-10.642-11.708-17.951-14.733-7.309-3.029-15.352-3.823-23.111-2.278s-14.886 5.355-20.48 10.948c-5.594 5.594-9.404 12.719-10.947 20.48s-0.751 15.804 2.276 23.113c3.028 7.309 8.154 13.555 14.732 17.95s14.312 6.741 22.223 6.741c10.609 0 20.783-4.215 28.284-11.716s11.716-17.677 11.716-28.284z" />
<glyph unicode="&#xe913;" glyph-name="user" d="M923.706 112c-60.922 105.318-154.797 180.838-264.358 216.641 54.195 32.262 96.294 81.421 119.846 139.928s27.245 123.128 10.515 183.937c-16.73 60.81-52.96 114.447-103.123 152.673s-111.49 58.93-174.559 58.93-124.394-20.703-174.559-58.93c-50.164-38.227-86.393-91.864-103.123-152.673s-13.037-125.43 10.514-183.937c23.55-58.508 65.655-107.667 119.848-139.928-109.56-35.757-203.44-111.277-264.36-216.641-2.234-3.642-3.716-7.693-4.358-11.923-0.643-4.224-0.432-8.531 0.619-12.672 1.051-4.147 2.92-8.032 5.499-11.443 2.578-3.405 5.813-6.266 9.513-8.403s7.791-3.507 12.031-4.038c4.241-0.531 8.544-0.211 12.657 0.954 4.113 1.158 7.952 3.13 11.291 5.798 3.338 2.662 6.109 5.971 8.148 9.728 75.36 130.24 208.56 208 356.28 208 147.718 0 280.921-77.76 356.281-208 2.042-3.757 4.806-7.066 8.147-9.728 3.341-2.669 7.181-4.64 11.29-5.798 4.115-1.165 8.416-1.485 12.659-0.954 4.237 0.531 8.333 1.901 12.032 4.038s6.931 4.998 9.51 8.403c2.579 3.411 4.448 7.296 5.498 11.443 1.056 4.141 1.261 8.448 0.621 12.672-0.64 4.23-2.125 8.282-4.358 11.923zM288.026 576.001c0 44.303 13.137 87.611 37.751 124.447s59.597 65.548 100.528 82.502c40.931 16.954 85.97 21.39 129.421 12.747s83.364-29.977 114.692-61.304c31.328-31.327 52.659-71.24 61.306-114.692 8.64-43.452 4.205-88.49-12.749-129.421s-45.664-75.915-82.502-100.529c-36.836-24.613-80.145-37.75-124.448-37.75-59.389 0.063-116.327 23.684-158.321 65.678s-65.615 98.933-65.679 158.322z" />
<glyph unicode="&#xe914;" glyph-name="wishlist" d="M712 824c-83.998 0-157.039-37.88-200-101.36-42.961 63.48-116 101.36-200 101.36-63.629-0.074-124.631-25.384-169.624-70.376s-70.302-105.995-70.376-169.624c0-116.8 72.8-238.362 216.4-361.242 65.802-56.068 136.881-105.634 212.242-147.998 3.49-1.877 7.394-2.859 11.358-2.859s7.868 0.981 11.358 2.859c75.362 42.364 146.441 91.93 212.241 147.998 143.599 122.88 216.401 244.442 216.401 361.242-0.073 63.629-25.382 124.631-70.374 169.624-44.996 44.992-105.997 70.302-169.626 70.376zM512 123.558c-65.638 37.879-392 237.559-392 460.442 0.053 50.905 20.299 99.711 56.294 135.706s84.801 56.241 135.706 56.294c81.12 0 149.239-43.32 177.801-113.080 1.809-4.402 4.885-8.167 8.836-10.816 3.955-2.65 8.606-4.064 13.363-4.064s9.408 1.415 13.363 4.064c3.951 2.65 7.027 6.415 8.836 10.816 28.561 69.76 96.683 113.080 177.801 113.080 50.906-0.053 99.712-20.299 135.706-56.294 35.998-35.995 56.243-84.801 56.294-135.706 0-222.882-326.362-422.562-392-460.442z" />
<glyph unicode="&#xe915;" glyph-name="arrow" d="M726.658 425.36l-320-319.999c-2.973-2.97-6.502-5.333-10.388-6.938-3.884-1.613-8.048-2.441-12.252-2.441s-8.369 0.828-12.253 2.441c-3.884 1.604-7.414 3.968-10.387 6.938-2.974 2.972-5.332 6.502-6.941 10.387s-2.437 8.048-2.437 12.252c0 4.205 0.828 8.369 2.437 12.253s3.967 7.415 6.941 10.388l297.399 297.36-297.399 297.359c-6.005 6.005-9.378 14.148-9.378 22.641s3.373 16.635 9.378 22.64c6.004 6.004 14.148 9.377 22.64 9.377s16.636-3.373 22.64-9.377l320-320c2.976-2.972 5.336-6.502 6.946-10.386s2.439-8.049 2.439-12.254c0-4.206-0.829-8.369-2.439-12.255s-3.971-7.414-6.946-10.386z" />
<glyph unicode="&#xe916;" glyph-name="bath" d="M928 567.998h-104v8c0 6.365-2.53 12.47-7.031 16.971-4.497 4.501-10.603 7.029-16.969 7.029h-256c-6.366 0-12.471-2.528-16.969-7.029-4.501-4.501-7.031-10.605-7.031-16.971v-8h-272v184c0 14.852 5.9 29.096 16.402 39.598s24.746 16.402 39.598 16.402c13.088 0.024 25.798-4.388 36.056-12.518s17.457-19.495 20.424-32.242c0.581-3.131 1.779-6.115 3.525-8.779s4.004-4.953 6.644-6.735c2.639-1.782 5.607-3.021 8.73-3.644s6.339-0.62 9.46 0.012c3.121 0.632 6.086 1.879 8.72 3.667s4.887 4.084 6.626 6.752c1.739 2.668 2.929 5.655 3.502 8.788s0.516 6.348-0.166 9.459c-5.064 23.657-18.121 44.847-36.975 60.007s-42.353 23.364-66.545 23.232c-27.583 0-54.035-10.957-73.539-30.461s-30.461-45.957-30.461-73.539v-184h-104c-14.852 0-29.096-5.9-39.598-16.402s-16.402-24.744-16.402-39.596v-128c0.064-57.267 22.841-112.171 63.335-152.666s95.398-63.27 152.665-63.334h8v-72c0-6.366 2.528-12.471 7.029-16.973s10.606-7.027 16.971-7.027c6.365 0 12.47 2.526 16.971 7.027s7.029 10.607 7.029 16.973v72h400v-72c0-6.366 2.53-12.471 7.031-16.973 4.497-4.501 10.603-7.027 16.969-7.027s12.471 2.526 16.969 7.027c4.501 4.501 7.031 10.607 7.031 16.973v72h8c57.267 0.064 112.171 22.839 152.666 63.334s63.27 95.398 63.334 152.666v128c0 14.852-5.901 29.094-16.401 39.596-10.505 10.502-24.747 16.402-39.599 16.402zM568 551.998h208v-143.998h-208v143.998zM936 384c0-44.557-17.698-87.287-49.207-118.797-31.505-31.505-74.236-49.203-118.793-49.203h-512c-44.556 0-87.288 17.698-118.794 49.203-31.506 31.509-49.206 74.24-49.206 118.797v128c0 2.121 0.843 4.156 2.343 5.653 1.5 1.502 3.535 2.347 5.657 2.347h424v-136c0-6.366 2.53-12.471 7.031-16.973 4.497-4.501 10.603-7.027 16.969-7.027h256c6.366 0 12.471 2.526 16.969 7.027 4.501 4.501 7.031 10.607 7.031 16.973v136h104c2.121 0 4.156-0.845 5.658-2.347 1.498-1.498 2.342-3.533 2.342-5.653v-128z" />
<glyph unicode="&#xe917;" glyph-name="bed" d="M832 664h-744v104c0 6.365-2.528 12.47-7.029 16.971s-10.606 7.029-16.971 7.029c-6.365 0-12.47-2.528-16.971-7.029s-7.029-10.606-7.029-16.971v-640c0-6.366 2.529-12.471 7.029-16.969 4.501-4.501 10.606-7.031 16.971-7.031s12.47 2.53 16.971 7.031c4.501 4.497 7.029 10.603 7.029 16.969v136h848v-136c0-6.366 2.53-12.471 7.031-16.969 4.497-4.501 10.603-7.031 16.969-7.031s12.471 2.53 16.969 7.031c4.501 4.497 7.031 10.603 7.031 16.969v384c0 40.313-16.013 78.975-44.518 107.48s-67.17 44.52-107.482 44.52zM88 616h304v-304h-304v304zM440 312v304h392c27.584 0 54.037-10.957 73.54-30.461s30.46-45.956 30.46-73.539v-200h-496z" />
<glyph unicode="&#xe918;" glyph-name="building" d="M960 120.004h-72v455.998c0 14.852-5.901 29.096-16.401 39.598-10.505 10.502-24.747 16.402-39.599 16.402h-264v200c-0.004 10.136-2.761 20.080-7.97 28.773-5.214 8.693-12.685 15.808-21.623 20.588s-19.008 7.043-29.133 6.55c-10.121-0.493-19.921-3.725-28.352-9.35l-320.002-213.32c-7.668-5.117-13.955-12.047-18.302-20.176s-6.62-17.206-6.618-26.424v-498.639h-72c-6.365 0-12.47-2.53-16.971-7.031s-7.029-10.603-7.029-16.969c0-6.366 2.529-12.471 7.029-16.973s10.606-7.027 16.971-7.027h896c6.366 0 12.471 2.526 16.969 7.027 4.501 4.501 7.031 10.607 7.031 16.973s-2.53 12.467-7.031 16.969c-4.497 4.501-10.603 7.031-16.969 7.031zM832 584.003c2.121 0 4.156-0.843 5.658-2.343 1.498-1.501 2.342-3.535 2.342-5.657v-455.998h-272v463.998h264zM184 618.643c0.003 1.314 0.329 2.607 0.949 3.765s1.518 2.145 2.611 2.874l319.998 213.36c1.203 0.803 2.603 1.265 4.049 1.335s2.884-0.251 4.16-0.933c1.276-0.681 2.342-1.696 3.089-2.936s1.139-2.659 1.143-4.107v-711.998h-336v498.639zM440 512.004v-64c0-6.366-2.53-12.471-7.031-16.973-4.497-4.501-10.604-7.027-16.969-7.027s-12.47 2.526-16.971 7.027c-4.501 4.501-7.029 10.607-7.029 16.973v64c0 6.362 2.528 12.467 7.029 16.969s10.606 7.030 16.971 7.030c6.365 0 12.471-2.528 16.969-7.030 4.501-4.501 7.031-10.607 7.031-16.969zM312 512.004v-64c0-6.366-2.528-12.471-7.029-16.973s-10.606-7.027-16.971-7.027c-6.365 0-12.47 2.526-16.971 7.027s-7.029 10.607-7.029 16.973v64c0 6.362 2.528 12.467 7.029 16.969s10.606 7.030 16.971 7.030c6.365 0 12.47-2.528 16.971-7.030s7.029-10.607 7.029-16.969zM312 288.004v-64c0-6.366-2.528-12.471-7.029-16.973s-10.606-7.027-16.971-7.027c-6.365 0-12.47 2.526-16.971 7.027s-7.029 10.607-7.029 16.973v64c0 6.366 2.528 12.467 7.029 16.969s10.606 7.031 16.971 7.031c6.365 0 12.47-2.53 16.971-7.031s7.029-10.603 7.029-16.969zM440 288.004v-64c0-6.366-2.53-12.471-7.031-16.973-4.497-4.501-10.604-7.027-16.969-7.027s-12.47 2.526-16.971 7.027c-4.501 4.501-7.029 10.607-7.029 16.973v64c0 6.366 2.528 12.467 7.029 16.969s10.606 7.031 16.971 7.031c6.365 0 12.471-2.53 16.969-7.031 4.501-4.501 7.031-10.603 7.031-16.969z" />
<glyph unicode="&#xe919;" glyph-name="car" d="M960 504h-48.401l-113.237 254.76c-4.403 9.894-11.575 18.299-20.659 24.198-9.079 5.9-19.674 9.040-30.502 9.041h-470.4c-10.828-0.001-21.424-3.142-30.504-9.041s-16.255-14.305-20.656-24.198l-113.24-254.76h-48.4c-6.365 0-12.47-2.53-16.971-7.031-4.501-4.497-7.029-10.603-7.029-16.969s2.529-12.471 7.029-16.969c4.501-4.501 10.606-7.031 16.971-7.031h40v-328c0-14.852 5.9-29.094 16.402-39.599 10.502-10.5 24.746-16.401 39.598-16.401h96c14.852 0 29.096 5.901 39.598 16.401 10.502 10.505 16.402 24.747 16.402 39.599v72h400v-72c0-14.852 5.901-29.094 16.401-39.599 10.505-10.5 24.747-16.401 39.599-16.401h96c14.852 0 29.094 5.901 39.599 16.401 10.5 10.505 16.401 24.747 16.401 39.599v328h40c6.366 0 12.471 2.53 16.969 7.031 4.501 4.497 7.031 10.603 7.031 16.969s-2.53 12.471-7.031 16.969c-4.497 4.501-10.603 7.031-16.969 7.031zM269.48 739.24c0.628 1.417 1.654 2.621 2.953 3.467s2.816 1.294 4.367 1.293h470.4c1.549 0.001 3.068-0.448 4.365-1.293 1.301-0.845 2.325-2.049 2.957-3.467l104.559-235.24h-694.161l104.56 235.24zM872 128c0-2.121-0.845-4.156-2.342-5.658-1.502-1.498-3.537-2.342-5.658-2.342h-96c-2.121 0-4.156 0.845-5.658 2.342-1.498 1.502-2.342 3.537-2.342 5.658v96c0 6.366-2.53 12.471-7.031 16.969-4.497 4.501-10.603 7.031-16.969 7.031h-448c-6.365 0-12.47-2.53-16.971-7.031-4.501-4.497-7.029-10.603-7.029-16.969v-96c0-2.121-0.843-4.156-2.343-5.658-1.5-1.498-3.535-2.342-5.657-2.342h-96c-2.122 0-4.157 0.845-5.657 2.342-1.501 1.502-2.343 3.537-2.343 5.658v328h720v-328z" />
<glyph unicode="&#xe91a;" glyph-name="close" d="M834.001 193.958c9.015-9.015 14.080-21.248 14.080-33.997 0-12.753-5.065-24.986-14.080-34.001-9.020-9.020-21.248-14.084-34.001-14.084s-24.981 5.065-34.001 14.084l-253.961 254.037-254.039-253.956c-9.017-9.020-21.248-14.084-34-14.084s-24.983 5.065-34 14.084c-9.017 9.015-14.083 21.244-14.083 33.997s5.066 24.986 14.083 34.001l254.041 253.961-253.961 254.039c-9.018 9.018-14.083 21.248-14.083 34s5.066 24.983 14.083 34c9.017 9.018 21.248 14.083 34 14.083s24.983-5.066 34-14.083l253.958-254.042 254.042 254.082c9.015 9.017 21.248 14.083 34.001 14.083s24.981-5.066 33.997-14.083c9.020-9.018 14.084-21.248 14.084-34s-5.065-24.983-14.084-34l-254.037-254.080 253.961-254.042z" />
<glyph unicode="&#xe91b;" glyph-name="coin" d="M830.32 704.64c-82.92 41.44-193 63.36-318.32 63.36s-235.4-21.92-318.32-63.36c-82.92-41.44-129.68-99.76-129.68-160.64v-192c0-60.88 47.28-119.4 129.68-160.64s193-63.36 318.32-63.36c125.32 0 235.4 21.92 318.32 63.36 82.918 41.44 129.68 99.76 129.68 160.64v192c0 60.88-47.283 119.4-129.68 160.64zM512 704c250.56 0 384-92.92 384-160s-133.44-160-384-160c-250.56 0-384 92.92-384 160s133.44 160 384 160zM480 320.56v-128c-76 2.48-140 13.681-192 29.961v125.28c62.685-16.701 127.143-25.846 192-27.24zM544 320.56c64.857 1.394 129.315 10.54 192 27.24v-125.24c-52-16.28-116-27.48-192-29.96v127.96zM128 352v73.88c20.138-16.716 42.185-30.989 65.68-42.52 9.719-4.84 20-9.4 30.32-13.72v-121.64c-63.32 31.36-96 70.84-96 104zM800 248v121.64c10.44 4.32 20.6 8.88 30.32 13.72 23.491 11.531 45.542 25.804 65.68 42.52v-73.88c0-33.16-32.683-72.64-96-104z" />
<glyph unicode="&#xe91c;" glyph-name="compare" d="M950.281 424.922l-128 319.998c-2.112 5.278-6.033 9.635-11.055 12.294-5.026 2.659-10.833 3.448-16.384 2.226l-258.842-57.52v98.080c0 6.365-2.53 12.47-7.031 16.971-4.497 4.501-10.603 7.029-16.969 7.029s-12.471-2.528-16.969-7.029c-4.501-4.501-7.031-10.606-7.031-16.971v-108.76l-269.2-60c-3.814-0.847-7.363-2.613-10.34-5.143s-5.29-5.749-6.74-9.376l-128-319.999c-1.102-2.778-1.685-5.734-1.72-8.721 0-87.441 93.24-120 152-120s152 32.559 152 120c-0.010 3.055-0.593 6.080-1.72 8.922l-117.52 293.758 231.24 51.4v-522.080h-72c-6.365 0-12.47-2.53-16.971-7.031-4.501-4.497-7.029-10.603-7.029-16.969s2.528-12.471 7.029-16.969c4.501-4.501 10.606-7.031 16.971-7.031h192c6.366 0 12.471 2.53 16.969 7.031 4.501 4.497 7.031 10.603 7.031 16.969s-2.53 12.471-7.031 16.969c-4.497 4.501-10.603 7.031-16.969 7.031h-72v532.76l224.841 49.96-111.121-277.798c-1.126-2.842-1.711-5.867-1.719-8.922 0-87.441 93.239-120 152-120s152 32.559 152 120c-0.009 3.055-0.593 6.080-1.719 8.922zM224 216c-24.458 0.192-48.485 6.46-69.92 18.24-21.48 12.518-32.6 28.719-33.96 49.481l104 259.639 104-259.639c-3.88-55.121-77.8-67.721-104.12-67.721zM800 344c-24.457 0.192-48.486 6.46-69.922 18.24-21.478 12.518-32.597 28.719-33.958 49.481l104 259.639 104-259.639c-3.878-55.121-77.798-67.721-104.119-67.721z" />
<glyph unicode="&#xe91d;" glyph-name="crane" horiz-adv-x="1067" d="M423.42-64h-224.464v1024h224.464v-1024zM245.333-17.623h131.71v931.246h-131.71v-931.246zM1045.333 691.478h-1024v77.449l191.072 191.072 193.855-0.928 638.609-182.261v-85.333zM67.71 737.855h931.246v3.71l-601.971 172.058h-165.101l-164.174-164.174v-11.594zM0-17.623h1066.667v-46.377h-1066.667v46.377zM933.565 290.783c-19.014 0-37.565 4.638-54.261 13.913-17.159 9.275-32 23.652-42.203 40.348-10.203 17.159-15.768 36.638-16.232 56.116h46.377c0-11.13 3.246-22.261 9.275-32.464s14.377-18.087 24.58-23.652c10.203-5.565 22.725-8.348 33.391-7.884 11.594 0 22.725 3.71 32.928 9.739 9.739 6.029 18.087 14.841 23.652 25.043s8.348 21.797 7.884 33.391c0 11.594-3.71 23.188-10.203 32.928-6.029 9.739-14.841 18.087-25.043 23.188-17.623 10.203-31.536 24.58-40.812 41.275-9.275 17.159-13.913 36.174-13.449 55.652v156.29h46.377v-157.217c0-11.594 2.319-22.725 7.42-32.464s12.986-17.623 22.725-23.188c16.696-8.812 31.536-22.261 42.203-38.957s16.696-36.174 17.159-56.116c0.464-19.942-3.71-39.42-13.449-57.043-9.275-17.623-23.188-32-39.884-42.667-17.159-10.203-36.174-16.232-56.116-16.696h-2.783zM205.4 64.175l178.068 178.068 32.793-32.793-178.068-178.068-32.793 32.793zM205.699 431.516l32.753 32.833 177.957-177.523-32.753-32.833-177.957 177.523zM205.834 508.911l177.988 177.492 32.748-32.839-177.988-177.492-32.748 32.839z" />
<glyph unicode="&#xe91e;" glyph-name="double_arrow" d="M560.963 431.037l-320.001-320c-4.55-4.239-10.567-6.548-16.785-6.436-6.218 0.108-12.15 2.627-16.547 7.025s-6.916 10.332-7.026 16.548c-0.11 6.216 2.199 12.237 6.438 16.783l303 303.043-303 303.038c-4.239 4.55-6.547 10.567-6.438 16.785s2.629 12.15 7.026 16.547c4.398 4.397 10.33 6.916 16.547 7.026s12.235-2.199 16.785-6.438l320.001-320c4.495-4.5 7.020-10.6 7.020-16.958s-2.524-12.462-7.020-16.963zM880.963 464.958l-320 320c-4.552 4.239-10.568 6.547-16.788 6.438-6.216-0.11-12.15-2.629-16.543-7.026-4.398-4.398-6.917-10.33-7.030-16.547-0.108-6.218 2.202-12.235 6.441-16.785l302.996-303.038-302.996-303.043c-2.36-2.196-4.25-4.844-5.56-7.788-1.316-2.944-2.017-6.124-2.074-9.349-0.061-3.22 0.532-6.42 1.741-9.411 1.208-2.985 3.005-5.704 5.284-7.982s4.992-4.076 7.982-5.284c2.985-1.203 6.19-1.797 9.411-1.741s6.4 0.763 9.344 2.074c2.944 1.311 5.596 3.205 7.793 5.56l320 320c4.495 4.5 7.020 10.604 7.020 16.963s-2.524 12.458-7.020 16.958z" />
<glyph unicode="&#xe91f;" glyph-name="envelope" d="M896 768h-768c-8.487 0-16.627-3.372-22.627-9.373s-9.373-14.14-9.373-22.627v-544c0-16.973 6.743-33.254 18.745-45.254s28.281-18.746 45.255-18.746h704c16.973 0 33.254 6.746 45.254 18.746s18.746 28.282 18.746 45.254v544c0 8.487-3.373 16.627-9.37 22.627-6.003 6.001-14.144 9.373-22.63 9.373zM813.722 704l-301.722-276.6-301.72 276.6h603.442zM864 192h-704v471.24l330.36-302.84c5.904-5.42 13.626-8.426 21.64-8.426s15.736 3.007 21.64 8.426l330.36 302.84v-471.24z" />
<glyph unicode="&#xe920;" glyph-name="language" d="M956.604 110.32l-224.003 448c-2.658 5.315-6.744 9.784-11.798 12.908s-10.88 4.779-16.822 4.779c-5.943 0-11.767-1.655-16.822-4.779s-9.141-7.593-11.799-12.908l-86.839-173.72c-68.069 3.828-133.56 27.34-188.52 67.68 64.484 68.861 103.554 157.655 110.76 251.72h97.24c8.487 0 16.626 3.372 22.628 9.373s9.372 14.14 9.372 22.627c0 8.487-3.372 16.626-9.372 22.627s-14.141 9.373-22.628 9.373h-224v64c0 8.487-3.372 16.626-9.373 22.627s-14.14 9.373-22.627 9.373c-8.487 0-16.626-3.371-22.627-9.373s-9.373-14.141-9.373-22.627v-64h-224c-8.487 0-16.626-3.372-22.627-9.373s-9.373-14.14-9.373-22.627c0-8.487 3.371-16.626 9.373-22.627s14.14-9.373 22.627-9.373h350.52c-7.128-78.426-40.418-152.177-94.52-209.4-33.713 35.574-59.603 77.814-76 124-1.349 4.029-3.486 7.751-6.288 10.945s-6.211 5.8-10.031 7.663c-3.819 1.863-7.971 2.947-12.214 3.187s-8.49-0.365-12.495-1.784c-4.006-1.418-7.689-3.62-10.834-6.477s-5.691-6.312-7.486-10.163c-1.796-3.851-2.807-8.022-2.974-12.268s0.514-8.483 2.002-12.463c19.091-53.995 49.163-103.448 88.32-145.24-60.29-44.304-133.183-68.134-208-68-8.487 0-16.626-3.372-22.627-9.372s-9.373-14.141-9.373-22.628c0-8.487 3.371-16.626 9.373-22.628s14.14-9.372 22.627-9.372c92.824-0.103 182.986 31.003 256 88.32 59.583-46.554 130.71-76.021 205.76-85.24l-106.4-212.76c-3.797-7.59-4.425-16.379-1.743-24.432s8.452-14.71 16.043-18.508c7.59-3.798 16.379-4.425 24.432-1.743s14.711 8.453 18.509 16.044l55.159 110.32h280.44l55.162-110.32c2.662-5.316 6.75-9.787 11.802-12.91 5.060-3.122 10.889-4.774 16.836-4.77 5.453 0.003 10.82 1.399 15.582 4.058s8.764 6.49 11.631 11.131c2.867 4.64 4.497 9.936 4.736 15.385 0.247 5.449-0.905 10.869-3.345 15.747zM595.76 256l108.24 216.44 108.2-216.44h-216.44z" />
<glyph unicode="&#xe921;" glyph-name="location" d="M512 696c-30.063 0-59.452-8.915-84.446-25.617-24.997-16.702-44.479-40.441-55.984-68.215s-14.515-58.336-8.65-87.821c5.865-29.487 20.342-56.567 41.599-77.828 21.258-21.257 48.34-35.733 77.827-41.596 29.483-5.867 60.045-2.859 87.821 8.649 27.776 11.503 51.516 30.985 68.215 55.983 16.704 24.994 25.617 54.383 25.617 84.446 0 40.313-16.013 78.975-44.518 107.48s-67.17 44.52-107.482 44.52zM512 440c-20.57 0-40.678 6.101-57.779 17.527s-30.433 27.669-38.304 46.673c-7.871 19.004-9.931 39.915-5.918 60.089s13.918 38.705 28.461 53.25c14.545 14.545 33.075 24.45 53.252 28.463 20.173 4.013 41.084 1.953 60.087-5.918s35.247-21.201 46.673-38.304c11.426-17.103 17.527-37.21 17.527-57.779 0-27.584-10.957-54.037-30.46-73.54s-45.956-30.46-73.54-30.46zM512 888c-91.202-0.106-178.638-36.383-243.128-100.872s-100.766-151.926-100.872-243.128c0-123.639 57.36-254.959 165.88-379.759 48.98-56.606 104.106-107.588 164.36-152 4.032-2.825 8.836-4.339 13.76-4.339s9.728 1.515 13.76 4.339c60.254 44.412 115.379 95.394 164.361 152 108.518 124.8 165.879 256 165.879 379.759-0.107 91.202-36.382 178.638-100.873 243.128s-151.927 100.766-243.127 100.872zM512 61.961c-59.998 46.319-296 243.558-296 482.039 0 78.504 31.185 153.793 86.697 209.303s130.801 86.697 209.303 86.697c78.502 0 153.792-31.185 209.306-86.697 55.509-55.511 86.694-130.799 86.694-209.303 0-238.481-236.002-435.721-296-482.039z" />
<glyph unicode="&#xe922;" glyph-name="loop" d="M918.65 86.637l-200.282 200.243c58.048 69.69 86.995 159.079 80.819 249.569s-47.008 175.115-113.99 236.271c-66.98 61.155-154.962 94.132-245.64 92.072s-177.069-39.001-241.204-103.136c-64.136-64.136-101.076-150.528-103.137-241.205s30.916-178.659 92.072-245.641c61.156-66.982 145.78-107.808 236.271-113.99 90.49-6.176 179.879 22.771 249.568 80.819l200.243-200.282c2.97-2.97 6.502-5.331 10.387-6.938 3.885-1.613 8.045-2.438 12.25-2.438s8.371 0.826 12.256 2.438c3.885 1.606 7.411 3.968 10.387 6.938 2.97 2.976 5.331 6.502 6.938 10.387 1.613 3.885 2.438 8.051 2.438 12.256s-0.826 8.365-2.438 12.25c-1.606 3.885-3.968 7.418-6.938 10.387zM160.009 511.999c0 56.961 16.891 112.643 48.537 160.004s76.625 84.275 129.251 106.073c52.625 21.798 110.532 27.501 166.399 16.388s107.183-38.541 147.459-78.819c40.282-40.278 67.706-91.594 78.822-147.46 11.11-55.867 5.408-113.774-16.39-166.399s-58.714-97.606-106.073-129.248c-47.361-31.648-103.043-48.538-160.004-48.538-76.356 0.083-149.561 30.451-203.553 84.448-53.992 53.99-84.362 127.194-84.447 203.551z" />
<glyph unicode="&#xe923;" glyph-name="mailbox" d="M256.029 471.27h-93.090c-13.964 0-23.272-9.31-23.272-23.27 0-13.965 9.31-23.275 23.272-23.275h93.090c13.964 0 23.272 9.31 23.272 23.275s-9.308 23.27-23.272 23.27zM814.545 750.545h-232.725c-13.965 0-23.275-9.31-23.275-23.272s9.31-23.274 23.275-23.274h232.725c90.765 0 162.91-72.146 162.91-162.91v-279.274c0-13.961-9.31-23.27-23.27-23.27h-884.367c-13.964 0-23.272 9.31-23.272 23.27v279.274c0 90.764 72.146 162.91 162.91 162.91s162.91-72.146 162.91-162.91v-232.729c0-13.965 9.31-23.27 23.272-23.27s23.272 9.31 23.272 23.27v232.729c0 65.164-30.254 123.346-79.128 162.91h125.673v-255.999c0-13.965 9.31-23.275 23.27-23.275 13.965 0 23.275 9.31 23.275 23.275v418.909c0 13.964 9.31 23.272 23.27 23.272h139.639c13.961 0 23.27-9.31 23.27-23.272s-9.31-23.272-23.27-23.272h-93.090c-13.965 0-23.275-9.31-23.275-23.272s9.31-23.272 23.275-23.272h93.090c39.561 0 69.815 30.254 69.815 69.818s-30.255 69.818-69.815 69.818h-139.639c-39.561 0-69.815-30.254-69.815-69.818v-116.364h-256.001c-116.364-0.002-209.454-93.094-209.454-209.458v-279.274c0-39.561 30.254-69.815 69.818-69.815h325.818v-46.545c0-13.965 9.31-23.275 23.272-23.275h23.272v-139.635c0-13.965 9.31-23.27 23.27-23.27 13.965 0 23.275 9.31 23.275 23.27v139.635h46.545v-139.635c0-13.965 9.31-23.27 23.27-23.27 13.965 0 23.275 9.31 23.275 23.27v139.635h23.27c13.965 0 23.27 9.31 23.27 23.275v46.545h325.82c39.569 0 69.824 30.255 69.824 69.815v279.274c0 116.364-93.090 209.456-209.455 209.456zM581.82 168.725h-139.639v23.275h139.639v-23.275z" />
<glyph unicode="&#xe924;" glyph-name="menu-dots" d="M512 568c-23.735 0-46.933-7.038-66.667-20.224s-35.116-31.928-44.199-53.854-11.459-46.054-6.829-69.333c4.63-23.279 16.059-44.659 32.843-61.44 16.781-16.785 38.161-28.211 61.44-32.845 23.279-4.629 47.407-2.253 69.333 6.831s40.67 24.461 53.854 44.198c13.188 19.733 20.224 42.931 20.224 66.667 0 31.825-12.642 62.349-35.149 84.851-22.502 22.506-53.026 35.149-84.851 35.149zM512 376c-14.242 0-28.16 4.224-40 12.134s-21.069 19.157-26.517 32.311c-5.453 13.158-6.878 27.635-4.1 41.6 2.778 13.969 9.638 26.795 19.708 36.864s22.895 16.93 36.864 19.708c13.965 2.778 28.442 1.353 41.6-4.1 13.154-5.449 24.401-14.677 32.311-26.517s12.134-25.758 12.134-40c0-19.098-7.586-37.41-21.090-50.91-13.5-13.504-31.812-21.090-50.91-21.090zM512 648c23.735 0 46.933 7.038 66.667 20.224 19.738 13.186 35.115 31.927 44.198 53.854s11.46 46.055 6.831 69.333c-4.634 23.278-16.060 44.66-32.845 61.442-16.781 16.782-38.161 28.211-61.44 32.841s-47.407 2.254-69.333-6.829c-21.926-9.082-40.669-24.463-53.854-44.197s-20.224-42.935-20.224-66.668c0-31.826 12.643-62.348 35.149-84.853 22.502-22.505 53.026-35.147 84.851-35.147zM512 840c14.242 0 28.16-4.223 40-12.134s21.069-19.156 26.517-32.312c5.453-13.156 6.878-27.633 4.1-41.6s-9.638-26.796-19.708-36.865c-10.069-10.070-22.895-16.927-36.864-19.705-13.965-2.778-28.442-1.352-41.6 4.097-13.154 5.449-24.401 14.678-32.311 26.518s-12.134 25.761-12.134 40.001c0 19.095 7.586 37.409 21.090 50.912 13.5 13.503 31.812 21.088 50.91 21.088zM512 248c-23.735 0-46.933-7.040-66.667-20.224s-35.116-31.927-44.199-53.854-11.459-46.054-6.829-69.333c4.63-23.279 16.059-44.659 32.843-61.44 16.781-16.785 38.161-28.211 61.44-32.845 23.279-4.629 47.407-2.253 69.333 6.831s40.67 24.461 53.854 44.198c13.188 19.733 20.224 42.931 20.224 66.667 0 31.825-12.642 62.349-35.149 84.851-22.502 22.507-53.026 35.149-84.851 35.149zM512 56c-14.242 0-28.16 4.224-40 12.134s-21.069 19.157-26.517 32.311c-5.453 13.158-6.878 27.635-4.1 41.6 2.778 13.969 9.638 26.795 19.708 36.864s22.895 16.93 36.864 19.708c13.965 2.778 28.442 1.353 41.6-4.1 13.154-5.449 24.401-14.677 32.311-26.517s12.134-25.758 12.134-40c0-19.098-7.586-37.41-21.090-50.91-13.5-13.504-31.812-21.090-50.91-21.090z" />
<glyph unicode="&#xe925;" glyph-name="play" d="M925.44 495.238l-576.32 352.521c-8.499 5.215-18.24 8.064-28.211 8.254s-19.814-2.287-28.508-7.174c-8.648-4.749-15.852-11.746-20.851-20.251s-7.607-18.203-7.549-28.069v-705.041c-0.058-9.866 2.55-19.562 7.549-28.067s12.203-15.504 20.851-20.253c8.694-4.886 18.535-7.363 28.508-7.174 9.971 0.192 19.712 3.040 28.211 8.256l576.32 352.518c8.112 4.931 14.819 11.869 19.472 20.141 4.656 8.275 7.098 17.606 7.098 27.101 0 9.491-2.442 18.826-7.098 27.101-4.653 8.272-11.36 15.21-19.472 20.138zM900.4 441.718l-576.4-352.518c-1.245-0.749-2.669-1.142-4.119-1.142-1.452 0-2.876 0.394-4.12 1.142-1.206 0.586-2.221 1.504-2.928 2.643s-1.079 2.454-1.072 3.795v704.881c-0.008 1.341 0.364 2.657 1.072 3.797s1.723 2.056 2.928 2.643c1.294 0.722 2.759 1.081 4.239 1.040 1.421-0.051 2.8-0.479 4-1.24l576.4-352.481c1.098-0.64 2.003-1.558 2.637-2.659 0.63-1.104 0.963-2.349 0.963-3.619s-0.333-2.518-0.963-3.619c-0.634-1.101-1.539-2.019-2.637-2.662z" />
<glyph unicode="&#xe926;" glyph-name="quote" d="M377.6 796.8h-288c-17.822 0-34.915-7.080-47.518-19.682s-19.682-29.695-19.682-47.518v-307.2c0-17.823 7.080-34.916 19.682-47.519 12.603-12.6 29.695-19.681 47.518-19.681h297.6v-48c0-43.284-17.193-84.795-47.8-115.4-30.605-30.607-72.115-47.8-115.4-47.8-7.638 0-14.964-3.034-20.365-8.435s-8.435-12.726-8.435-20.365c0-7.639 3.034-14.963 8.435-20.365s12.727-8.435 20.365-8.435c58.537 0.077 114.655 23.363 156.045 64.755 41.393 41.39 64.678 97.508 64.755 156.045v422.4c0 17.822-7.081 34.915-19.681 47.518-12.603 12.602-29.696 19.682-47.519 19.682zM387.2 412.8h-297.6c-2.546 0-4.988 1.011-6.788 2.811-1.8 1.802-2.812 4.242-2.812 6.789v307.2c0 2.546 1.011 4.988 2.812 6.788s4.242 2.812 6.788 2.812h288c2.547 0 4.987-1.011 6.789-2.812 1.8-1.8 2.811-4.242 2.811-6.788v-316.8zM934.4 796.8h-288c-17.823 0-34.916-7.080-47.519-19.682-12.6-12.603-19.681-29.695-19.681-47.518v-307.2c0-17.823 7.081-34.916 19.681-47.519 12.603-12.6 29.696-19.681 47.519-19.681h297.6v-48c0-43.284-17.193-84.795-47.8-115.4-30.605-30.607-72.115-47.8-115.4-47.8-7.639 0-14.963-3.034-20.365-8.435s-8.435-12.726-8.435-20.365c0-7.639 3.034-14.963 8.435-20.365s12.726-8.435 20.365-8.435c58.537 0.077 114.655 23.363 156.045 64.755 41.393 41.39 64.678 97.508 64.755 156.045v422.4c0 17.822-7.081 34.915-19.681 47.518-12.603 12.602-29.696 19.682-47.519 19.682zM944 412.8h-297.6c-2.547 0-4.987 1.011-6.789 2.811-1.8 1.802-2.811 4.242-2.811 6.789v307.2c0 2.546 1.011 4.988 2.811 6.788 1.802 1.8 4.242 2.812 6.789 2.812h288c2.547 0 4.987-1.011 6.789-2.812 1.8-1.8 2.811-4.242 2.811-6.788v-316.8z" />
<glyph unicode="&#xe927;" glyph-name="rooms" d="M928 88h-104v712c0 14.852-5.901 29.096-16.401 39.598-10.505 10.502-24.747 16.402-39.599 16.402h-512c-14.852 0-29.096-5.9-39.598-16.402s-16.402-24.746-16.402-39.598v-712h-104c-6.365 0-12.47-2.53-16.971-7.031-4.501-4.497-7.029-10.603-7.029-16.969s2.528-12.471 7.029-16.969c4.501-4.501 10.606-7.031 16.971-7.031h832c6.366 0 12.471 2.53 16.969 7.031 4.501 4.497 7.031 10.603 7.031 16.969s-2.53 12.471-7.031 16.969c-4.497 4.501-10.603 7.031-16.969 7.031zM776 800v-712h-80v712c-0.030 2.678-0.243 5.351-0.64 8h72.64c2.121 0 4.156-0.843 5.658-2.343 1.498-1.5 2.342-3.535 2.342-5.657zM248 800c0 2.122 0.843 4.157 2.343 5.657s3.535 2.343 5.657 2.343h384c2.121 0 4.156-0.843 5.658-2.343 1.498-1.5 2.342-3.535 2.342-5.657v-712h-400v712zM576 432c0-9.493-2.816-18.773-8.090-26.667s-12.77-14.046-21.542-17.681c-8.768-3.631-18.419-4.582-27.733-2.731-9.31 1.852-17.865 6.426-24.576 13.137s-11.285 15.266-13.137 24.576c-1.852 9.314-0.9 18.965 2.731 27.733 3.635 8.772 9.788 16.269 17.681 21.542s17.173 8.090 26.667 8.090c12.732 0 24.939-5.056 33.941-14.059s14.059-21.21 14.059-33.941z" />
<glyph unicode="&#xe928;" glyph-name="sea" d="M142.959 655.16c-4.458 4.495-6.959 10.569-6.959 16.9s2.501 12.405 6.959 16.9c2.96 3.040 72.64 71.040 209.040 71.040 71.24 0 123.158-34.6 173.321-68 46.238-30.84 89.958-60 146.679-60 60.318 0 104.678 15.48 131.281 28.48 15.962 7.373 30.78 17.005 43.998 28.6 4.527 4.431 10.62 6.894 16.951 6.851 6.336-0.043 12.395-2.587 16.862-7.079 4.463-4.492 6.972-10.566 6.976-16.9 0.009-6.333-2.492-12.413-6.95-16.912-3.038-3.040-72.717-71.040-209.118-71.040-71.279 0-123.162 34.6-173.321 68-46.242 30.88-89.96 60-146.68 60-60.32 0-104.68-15.48-131.28-28.48-15.963-7.373-30.781-17.005-44-28.6-4.525-4.414-10.609-6.865-16.93-6.82s-12.369 2.582-16.83 7.060zM846.959 465.079c-13.218-11.593-28.036-21.227-43.998-28.599-26.283-13.001-70.643-28.48-130.961-28.48-56.721 0-100.442 29.12-146.679 60.002-50.163 33.438-102.081 67.998-173.321 67.998-136.4 0-206.080-67.998-209-71.040-4.457-4.501-6.956-10.577-6.951-16.913 0.006-6.332 2.514-12.407 6.98-16.9 4.465-4.489 10.525-7.036 16.858-7.078s12.427 2.419 16.953 6.852c13.219 11.593 28.037 21.227 44 28.599 26.48 13.001 70.84 28.48 131.16 28.48 56.72 0 100.438-29.12 146.68-60.002 50.159-33.438 102.042-67.998 173.321-67.998 136.401 0 206.080 67.998 208.998 71.040 4.459 4.501 6.959 10.577 6.95 16.913-0.004 6.332-2.513 12.407-6.98 16.9-4.463 4.489-10.522 7.036-16.858 7.078-6.332 0.043-12.425-2.419-16.951-6.852h-0.201zM846.959 241.079c-13.218-11.593-28.036-21.227-43.998-28.599-26.283-13.001-70.643-28.48-130.961-28.48-56.721 0-100.442 29.12-146.679 60.002-50.163 33.438-102.081 67.998-173.321 67.998-136.4 0-206.080-67.998-209-71.040-4.457-4.501-6.956-10.577-6.951-16.913 0.006-6.332 2.514-12.407 6.98-16.9 4.465-4.489 10.525-7.036 16.858-7.078s12.427 2.419 16.953 6.852c13.219 11.593 28.037 21.227 44 28.599 26.48 13.001 70.84 28.48 131.16 28.48 56.72 0 100.438-29.12 146.68-60.002 50.159-33.438 102.042-67.998 173.321-67.998 136.401 0 206.080 67.998 208.998 71.040 4.459 4.501 6.959 10.577 6.95 16.913-0.004 6.332-2.513 12.407-6.98 16.9-4.463 4.489-10.522 7.036-16.858 7.078-6.332 0.043-12.425-2.419-16.951-6.852h-0.201z" />
<glyph unicode="&#xe929;" glyph-name="share-btn" horiz-adv-x="884" d="M674.932 299.636c-23.315 0.009-46.373-4.911-67.654-14.438-21.285-9.528-40.313-23.45-55.836-40.848l-213.382 137.151c9.209 20.959 13.964 43.608 13.964 66.499 0 22.896-4.755 45.545-13.964 66.504l213.382 137.149c27.839-31.052 66.355-50.475 107.874-54.396s82.991 7.946 116.154 33.237c33.159 25.291 55.571 62.149 62.767 103.227 7.201 41.078-1.345 83.36-23.929 118.419-22.589 35.059-57.553 60.321-97.932 70.75s-83.205 5.26-119.943-14.477c-36.738-19.737-64.689-52.593-78.285-92.019s-11.837-82.527 4.929-120.713l-213.38-137.149c-22.387 25.035-51.847 42.682-84.483 50.606s-66.909 5.752-98.283-6.23c-31.374-11.982-58.37-33.208-77.416-60.869s-29.244-60.452-29.244-94.040c0-33.583 10.198-66.374 29.244-94.036s46.042-48.887 77.416-60.867c31.374-11.981 65.647-14.154 98.283-6.232 32.636 7.927 62.096 25.572 84.483 50.609l213.38-137.151c-14.322-32.721-17.701-69.19-9.626-103.983 8.071-34.793 27.164-66.048 54.43-89.116 27.271-23.068 61.258-36.715 96.908-38.907 35.654-2.197 71.056 7.182 100.948 26.731s52.675 48.23 64.954 81.771c12.279 33.536 13.396 70.149 3.193 104.374-10.203 34.23-31.19 64.247-59.83 85.592-28.639 21.341-63.404 32.861-99.123 32.852zM674.932 875.638c22.44 0 44.376-6.654 63.032-19.12 18.66-12.467 33.201-30.186 41.789-50.917s10.831-43.543 6.456-65.551c-4.38-22.008-15.183-42.224-31.050-58.091s-36.082-26.672-58.089-31.050c-22.011-4.378-44.823-2.131-65.555 6.456s-38.447 23.129-50.916 41.786c-12.465 18.658-19.121 40.593-19.121 63.032 0 30.090 11.953 58.948 33.233 80.225 21.276 21.277 50.134 33.23 80.221 33.23zM186.206 334.545c-22.439 0-44.375 6.656-63.032 19.121-18.658 12.47-33.199 30.189-41.786 50.921-8.587 20.727-10.834 43.539-6.456 65.55 4.378 22.007 15.183 42.223 31.050 58.090s36.083 26.672 58.091 31.050c22.008 4.378 44.82 2.131 65.551-6.456s38.45-23.129 50.917-41.786c12.466-18.658 19.12-40.595 19.12-63.034 0-30.087-11.953-58.945-33.23-80.221s-50.134-33.233-80.224-33.233zM674.932 20.364c-22.44 0-44.372 6.656-63.032 19.121-18.655 12.47-33.196 30.189-41.784 50.921-8.588 20.727-10.836 43.539-6.456 65.55 4.375 22.007 15.183 42.221 31.050 58.089 15.863 15.867 36.082 26.675 58.089 31.050 22.007 4.38 44.819 2.132 65.55-6.456s38.451-23.128 50.916-41.789c12.47-18.655 19.121-40.592 19.121-63.032 0-14.899-2.932-29.649-8.634-43.413-5.702-13.768-14.061-26.275-24.595-36.808-10.533-10.538-23.040-18.893-36.808-24.595-13.763-5.702-28.518-8.639-43.418-8.639z" />
<glyph unicode="&#xe92a;" glyph-name="share-email" d="M116 772h792l36-36v-576l-36-36h-792l-36 36v576l36 36zM152 654.616v-458.616h720v458.628l-360.005-327.281-359.995 327.269zM814.874 700h-605.76l302.881-275.347 302.879 275.347z" />
<glyph unicode="&#xe92b;" glyph-name="share-fb" d="M938.643 447.99c0 234.666-192 426.666-426.664 426.666-234.666 0-426.666-192-426.666-426.666 0-213.334 154.666-389.334 357.333-421.334v298.667h-106.667v122.667h106.667v96c0 106.666 64 165.333 160 165.333 47.997 0 95.997-10.667 95.997-10.667v-106.666h-53.331c-53.333 0-69.333-32-69.333-64v-80h117.333l-21.331-122.667h-101.335v-303.998c213.335 32 367.997 213.331 367.997 426.665z" />
<glyph unicode="&#xe92c;" glyph-name="share-in" d="M277.313 28.794h-181.334v570.665h181.334v-570.665zM186.646 679.459c-58.666 0-101.333 42.666-101.333 101.333s48 101.333 101.333 101.333c58.667 0 101.334-42.666 101.334-101.333s-42.667-101.333-101.334-101.333zM938.643 28.794h-181.331v309.331c0 90.667-37.331 117.334-90.669 117.334-53.331 0-106.664-42.667-106.664-122.667v-303.998h-181.333v570.665h170.666v-80c16 37.333 80 96 170.669 96 101.331 0 208-58.667 208-234.667v-351.998h10.662z" />
<glyph unicode="&#xe92d;" glyph-name="share-it" d="M511.979 797.548c113.092 0 128.514 0 174.78 0 41.126 0 61.69-10.281 77.107-15.421 20.563-10.281 35.987-15.421 51.405-30.844 15.424-15.421 25.702-30.843 30.848-51.405 5.139-15.421 10.278-35.984 15.418-77.108 0-46.265 0-56.546 0-174.779s0-128.515 0-174.78c0-41.126-10.278-61.683-15.418-77.107-10.285-20.563-15.424-35.987-30.848-51.405-15.418-15.424-30.842-25.702-51.405-30.842-15.418-5.146-35.981-10.285-77.107-15.424-46.266 0-56.547 0-174.78 0s-128.514 0-174.779 0c-41.124 0-61.686 10.278-77.108 15.424-20.562 10.278-35.984 15.418-51.405 30.842-15.421 15.418-25.703 30.842-30.844 51.405-5.14 15.424-10.281 35.981-15.421 77.107 0 46.266 0 56.547 0 174.78s0 128.514 0 174.779c0 41.124 10.281 61.687 15.421 77.108 10.281 20.563 15.422 35.984 30.844 51.405s30.844 25.703 51.405 30.844c15.422 5.14 35.984 10.281 77.108 15.421 46.265 0 61.687 0 174.779 0zM511.979 874.656c-118.233 0-128.514 0-174.779 0s-77.108-10.281-102.811-20.562c-25.703-10.281-51.406-25.703-77.108-51.405s-35.984-46.266-51.406-77.108c-10.281-25.703-15.421-56.547-20.562-102.812 0-46.265 0-61.686 0-174.779 0-118.233 0-128.515 0-174.78s10.281-77.107 20.562-102.81c10.282-25.702 25.703-51.405 51.406-77.107s46.265-35.987 77.108-51.405c25.702-10.285 56.546-15.424 102.811-20.563 46.265 0 61.687 0 174.779 0s128.514 0 174.78 0c46.266 0 77.107 10.278 102.81 20.563 25.702 10.278 51.405 25.702 77.107 51.405s35.987 46.266 51.411 77.107c10.278 25.702 15.418 56.544 20.557 102.81 0 46.266 0 61.688 0 174.78s0 128.514 0 174.779c0 46.265-10.278 77.108-20.557 102.812-10.285 25.702-25.709 51.405-51.411 77.108s-46.259 35.983-77.107 51.405c-25.702 10.281-56.544 15.421-102.81 20.562-46.266 0-56.547 0-174.78 0zM511.979 669.034c-123.373 0-221.044-97.67-221.044-221.044s97.67-221.046 221.044-221.046c123.374 0 221.045 97.672 221.045 221.046s-97.671 221.044-221.045 221.044zM511.979 304.051c-77.108 0-143.935 61.69-143.935 143.939 0 77.108 61.686 143.935 143.935 143.935 77.108 0 143.938-61.686 143.938-143.935 0-77.108-66.829-143.939-143.938-143.939zM738.163 622.769c28.39 0 51.405 23.015 51.405 51.405s-23.014 51.406-51.405 51.406c-28.39 0-51.405-23.015-51.405-51.406s23.014-51.405 51.405-51.405z" />
<glyph unicode="&#xe92e;" glyph-name="share-link" d="M606.247 542.25c-13.497 13.496-35.38 13.495-48.877-0.001-13.492-13.498-13.492-35.381 0.004-48.874l48.872 48.875zM327.049 423.564c13.497 13.497 13.497 35.375 0 48.872s-35.378 13.497-48.875 0l48.875-48.872zM417.752 353.753c13.497-13.497 35.38-13.497 48.872 0 13.497 13.497 13.497 35.38 0 48.877l-48.872-48.877zM696.954 472.436c-13.498-13.497-13.498-35.375 0-48.872 13.491-13.497 35.373-13.497 48.87 0l-48.87 48.872zM557.375 493.375c21.284-21.284 33.242-50.154 33.242-80.257h69.121c0 48.435-19.238 94.883-53.491 129.132l-48.872-48.875zM590.617 413.118c0-30.1-11.958-58.969-33.242-80.253l48.872-48.877c34.252 34.246 53.491 80.696 53.491 129.131h-69.121zM557.375 332.865l-139.622-139.629 48.872-48.87 139.622 139.622-48.872 48.877zM417.752 193.235c-44.326-44.32-116.19-44.32-160.515 0l-48.875-48.87c71.318-71.315 186.945-71.315 258.262 0l-48.872 48.87zM257.238 193.235c-44.324 44.326-44.324 116.192 0 160.518l-48.875 48.872c-71.317-71.313-71.317-186.939 0-258.26l48.875 48.87zM257.238 353.753l69.811 69.811-48.875 48.872-69.811-69.811 48.875-48.872zM466.625 402.63c-21.284 21.284-33.242 50.154-33.242 80.253h-69.122c0-48.435 19.242-94.884 53.492-129.13l48.872 48.877zM433.382 482.883c0 30.104 11.958 58.971 33.242 80.255l-48.872 48.877c-34.25-34.247-53.492-80.698-53.492-129.132h69.122zM466.625 563.139l139.622 139.624-48.872 48.875-139.622-139.622 48.872-48.877zM606.247 702.762c44.326 44.324 116.191 44.324 160.518 0l48.87 48.875c-71.322 71.317-186.947 71.317-258.26 0l48.872-48.875zM766.765 702.762c44.32-44.324 44.32-116.189 0-160.513l48.87-48.874c71.315 71.316 71.315 186.944 0 258.262l-48.87-48.875zM766.765 542.25l-69.811-69.813 48.87-48.872 69.811 69.811-48.87 48.874z" />
<glyph unicode="&#xe92f;" glyph-name="share-ok" d="M725.389 661.612c0-121.479-99.030-220.511-220.515-220.511-122.797 0-221.83 99.032-221.83 220.511 0 121.48 99.033 220.513 221.83 220.513 121.485 0 220.515-99.032 220.515-220.513zM595.988 661.612c0 50.176-40.936 91.11-91.114 91.11-51.494 0-92.429-40.934-91.107-91.11 0-50.177 40.935-91.108 91.107-91.108 50.178 0 91.114 40.931 91.114 91.108zM721.427 313.018c-39.61-25.088-83.187-42.253-128.079-52.819l125.442-121.478c25.082-25.094 25.082-66.022 0-91.117-25.088-25.082-66.022-25.082-91.108 0l-121.484 121.485-121.478-121.485c-13.205-11.878-29.050-18.483-46.216-18.483s-33.011 5.28-46.215 18.483c-25.089 25.094-25.089 66.022 0 91.117l122.802 122.803c-44.897 10.56-88.471 27.725-128.084 52.813-30.371 18.485-39.613 58.098-22.448 88.469 19.807 30.371 59.42 38.29 89.79 19.806 89.79-56.78 207.306-56.78 297.094 0 30.374 19.807 71.309 10.565 89.792-19.806 19.808-30.371 10.566-71.3-19.808-89.788z" />
<glyph unicode="&#xe930;" glyph-name="share-red" d="M667.085 307.315c-39.014 0-71.731 32.031-71.731 71.548 0 39.568 32.717 72.65 71.731 72.65 38.963 0 70.554-33.082 70.554-72.65 0-39.516-31.539-71.548-70.554-71.548zM677.018 175.11c-34.458-34.893-88.474-51.872-165.069-51.872-76.646 0-130.611 16.979-165.018 51.872-7.475 7.584-7.475 19.846 0 27.475 7.424 7.584 19.558 7.584 27.034 0 26.88-27.258 71.987-40.55 137.984-40.55 65.946 0 111.104 13.293 138.035 40.55 7.424 7.584 19.558 7.584 27.034 0 7.475-7.629 7.475-19.891 0-27.475zM286.31 378.863c0 39.516 32.666 72.65 71.629 72.65s70.554-33.133 70.554-72.65c0-39.516-31.59-71.548-70.554-71.548s-71.629 32.031-71.629 71.548zM1024 457.537c0 64.858-52.019 117.625-115.968 117.625-29.491 0-57.293-11.158-78.592-31.149-76.544 50.525-179.046 83.184-292.557 87.65l62.618 193.825 164.454-39.25c0.051-53.381 42.854-96.75 95.488-96.75s95.488 43.469 95.488 96.85c0 53.381-42.854 96.85-95.488 96.85-39.424 0-73.267-24.289-87.859-58.925-35.43 8.465-162.099 38.736-197.53 47.2l-77.312-239.4c-117.811-2.233-224.563-34.73-303.974-86.45-21.043 18.954-48.282 29.549-76.851 29.549-63.898 0-115.917-52.767-115.917-117.625 0-41.178 21.197-78.914 55.091-100.1-30.874-184.964 184.013-344.65 454.758-344.65 269.619 0 483.789 158.272 455.219 342.3 36.25 20.615 58.931 59.247 58.931 102.45z" />
<glyph unicode="&#xe931;" glyph-name="share-tg" d="M143.974 492.37c229.065 99.8 381.81 165.594 458.237 197.382 218.211 90.763 263.555 106.529 293.11 107.055 6.502 0.109 21.030-1.502 30.445-9.141 7.955-6.451 10.138-15.164 11.187-21.279 1.043-6.116 2.349-20.047 1.312-30.932-11.827-124.247-62.989-425.765-89.024-564.92-11.014-58.886-32.698-78.624-53.696-80.557-45.632-4.198-80.282 30.15-124.474 59.123-69.16 45.331-108.229 73.555-175.358 117.792-77.579 51.123-27.288 79.221 16.924 125.141 11.571 12.018 212.616 194.887 216.514 211.476 0.486 2.075 0.934 9.809-3.661 13.892s-11.373 2.687-16.269 1.577c-6.938-1.574-117.414-74.597-331.436-219.068-31.359-21.533-59.763-32.026-85.213-31.475-28.056 0.606-82.023 15.863-122.143 28.904-49.208 15.996-88.317 24.452-84.912 51.618 1.773 14.149 21.259 28.62 58.455 43.412z" />
<glyph unicode="&#xe932;" glyph-name="share-tumblr" d="M596.691 21.325c-128.563 0-223.913 65.888-223.913 223.91v252.84h-116.778v137.133c128.563 33.212 182.131 143.561 188.023 239.447h133.384v-217.485h155.348v-159.096h-155.348v-220.162c0-65.888 33.212-88.922 86.241-88.922h75.533v-167.667h-142.49z" />
<glyph unicode="&#xe933;" glyph-name="share-tw" d="M757.363 832h130.848l-285.868-326.728 336.3-444.6h-263.322l-206.241 269.647-235.988-269.647h-130.929l305.765 349.469-322.616 421.859h270.006l186.426-246.47 215.619 246.47zM711.437 138.989h72.506l-468.020 618.805h-77.806l473.321-618.805z" />
<glyph unicode="&#xe934;" glyph-name="share-vb" d="M554.667 789.344c-23.565 0-42.667-19.103-42.667-42.667s19.102-42.667 42.667-42.667c54.306 0 96.245-17.915 124.495-46.17 28.256-28.255 46.17-70.193 46.17-124.497 0-23.565 19.104-42.667 42.669-42.667s42.669 19.102 42.669 42.667c0 73.696-24.755 138.424-71.168 184.836s-111.14 71.164-184.834 71.164zM213.91 618.405c4.876 38.559 54.988 90.965 94.758 85.15l-0.064 0.063c33.243-6.317 60.535-56.35 78.522-89.324 2.954-5.417 5.658-10.374 8.096-14.6 12.242-21.733 4.293-43.752-7.123-53.044-1.32-1.064-2.704-2.163-4.128-3.293-15.191-12.060-34.929-27.727-30.309-43.45 8.984-30.575 115.651-137.242 168.114-167.565 16.064-9.284 28.552 8.746 39.249 24.188 2.525 3.648 4.954 7.151 7.304 10.116 8.934 11.93 30.972 19.059 52.655 7.283 32.386-18.859 62.888-40.777 91.1-65.451 14.093-11.776 17.395-29.178 7.635-47.571-17.197-32.397-66.925-75.123-103.027-66.438-63.053 15.162-318.046 114.010-399.952 400.388-4.289 12.614-3.579 17.924-2.963 22.532l0.133 1.014zM554.667 661.344c-23.565 0-42.667-19.103-42.667-42.667s19.102-42.667 42.667-42.667c7.458 0 18.483-4.157 28.497-14.17 10.010-10.012 14.17-21.040 14.17-28.497 0-23.565 19.102-42.667 42.667-42.667s42.669 19.102 42.669 42.667c0 35.21-17.178 66.848-39.168 88.836-21.984 21.988-53.626 39.164-88.834 39.164zM320.717-56.8c1.213-0.666 2.46-1.28 3.733-1.824 23.155-9.958 51.739 12.275 108.906 56.736l57.284 44.557c114.705-3.802 213.929 11.251 290.646 38.093 85.792 30.022 153.242 97.472 183.264 183.264 41.37 118.225 41.37 335.064 0 453.289-30.022 85.791-97.472 153.244-183.264 183.263-136.608 47.8-404.566 46.908-538.622 0-85.791-30.020-153.243-97.472-183.263-183.263-41.369-118.225-41.369-335.064 0-453.289 30.020-85.792 97.472-153.242 183.263-183.264 16.831-5.888 35.654-12.346 55.976-16.762 0-72.422 0-108.634 22.077-120.8zM383.974 67.808v47.782c0 10.035-6.997 18.707-16.812 20.806-32.508 6.95-64.82 13.894-96.314 24.915-61.28 21.44-109.46 69.619-130.902 130.899-16.294 46.566-26.238 119.723-26.238 198.46s9.944 151.895 26.238 198.46c21.443 61.279 69.622 109.459 130.902 130.902 54.085 18.925 143.723 30.62 240.264 30.727 96.529 0.107 186.724-11.388 241.988-30.727 61.28-21.443 109.459-69.623 130.899-130.902 16.294-46.565 26.24-119.724 26.24-198.46s-9.946-151.893-26.24-198.46c-21.44-61.28-69.619-109.459-130.899-130.899-90.95-31.827-187.409-35.405-282.774-32.576-4.984 0.141-9.869-1.44-13.803-4.499l-72.55-56.429z" />
<glyph unicode="&#xe935;" glyph-name="share-vk" d="M145.046 814.923c60.587 59.733 157.013 59.733 349.867 59.733h34.133c193.137 0 289.565 0 349.866-59.733 59.731-60.587 59.731-157.013 59.731-349.867v-34.133c0-193.137 0-289.566-59.731-349.867-60.589-59.731-157.011-59.731-349.866-59.731h-34.133c-193.138 0-289.565 0-349.867 59.731-59.733 60.589-59.733 157.011-59.733 349.867v34.133c0 193.138 0 289.565 59.733 349.867zM229.245 614.997c4.551-221.867 115.484-354.984 310.044-354.984h11.378v126.86c71.396-7.111 125.442-59.449 147.061-126.86h100.973c-10.355 38.304-28.717 73.98-53.869 104.673s-56.525 55.704-92.051 73.386c31.834 19.386 59.328 45.128 80.768 75.619 21.434 30.491 36.352 65.075 43.821 101.59h-91.59c-19.91-70.542-79.076-134.542-135.112-140.516v140.232h-91.875v-245.76c-56.889 14.222-128.569 83.057-131.698 245.76h-97.849z" />
<glyph unicode="&#xe936;" glyph-name="share-wa" d="M810.643 751.99c-80 80-186.664 122.666-298.664 122.666-234.666 0-426.666-192-426.666-426.666 0-74.667 21.334-149.334 58.667-213.334l-58.667-213.331 224.001 58.662c64-32 133.332-53.331 202.666-53.331 234.664 0 426.664 192 426.664 426.667 0 112-48 218.667-128 298.667zM511.979 95.987c-64 0-127.999 16-181.332 48l-10.668 5.338-133.333-37.338 37.334 128-10.668 16c-37.333 58.669-53.333 122.669-53.333 186.669 0 192 160 352 352 352 96 0 181.333-37.333 250.671-101.333 69.331-69.333 101.331-154.667 101.331-250.667 0-186.669-154.669-346.669-352.002-346.669zM703.981 362.656c-10.669 5.334-64.001 32-74.668 32-10.667 5.334-16.001 5.334-21.335-5.333s-26.665-32-31.999-42.667c-5.333-5.333-10.668-5.333-21.334-5.333-10.667 5.333-42.666 16-85.332 53.333-32 26.667-53.334 64-58.667 74.667s0 16 5.333 21.333c5.334 5.334 10.666 10.667 15.999 16s5.334 10.667 10.668 16c5.333 5.334 0 10.667 0 16s-21.334 58.667-32 80c-5.334 16-16 16-21.333 16s-10.668 0-21.335 0c-5.333 0-16 0-26.666-10.666s-37.332-37.334-37.332-90.667c0-53.333 37.332-101.333 42.666-112 5.333-5.333 74.666-117.336 181.332-159.998 90.667-37.338 106.668-26.669 128.003-26.669 21.331 0 64 26.669 69.331 48 10.669 26.669 10.669 48 5.331 48-5.331 26.667-16 26.667-26.662 32z" />
<glyph unicode="&#xe937;" glyph-name="soc-dzen" d="M553.16 917.080c-11.225-0.113-20.281-9.24-20.281-20.481 0-0.084 0.001-0.168 0.002-0.252v0.013c1.781-150.634 10.584-256.706 72.24-327.72s169.687-97.852 355.24-99.88c0.072-0.001 0.156-0.001 0.241-0.001 11.312 0 20.482 9.17 20.482 20.482 0 0.648-0.030 1.288-0.089 1.92l0.006-0.081c-20.485 225.617-200.184 405.371-425.8 425.92-0.546 0.052-1.18 0.081-1.822 0.081-0.077 0-0.153 0-0.23-0.001h0.012zM469 916.96c-0.562-0.008-1.104-0.036-1.641-0.086l0.081 0.006c-224.98-21.149-404.019-200.631-424.44-425.8-0.053-0.551-0.083-1.192-0.083-1.839 0-11.312 9.17-20.482 20.482-20.482 0.085 0 0.169 0.001 0.254 0.002h-0.013c185.007 2.132 292.755 29.023 354.2 100.040s70.169 176.995 71.96 327.44c0.001 0.071 0.001 0.156 0.001 0.24 0 11.312-9.17 20.482-20.482 20.482-0.112 0-0.224-0.001-0.336-0.003h0.017zM575.64 871.8c186.444-27.872 332.704-174.274 360.28-360.8-163.835 4.347-253.16 30.669-299.88 84.48-45.934 52.906-57.447 144.033-60.4 276.32zM447.080 871.64c-2.958-132.092-14.476-223.147-60.24-276.040-46.544-53.795-135.517-80.111-298.76-84.56 27.524 186.079 173.178 332.257 359 360.6zM63.64 427.24c-0.072 0.001-0.156 0.001-0.241 0.001-11.312 0-20.482-9.17-20.482-20.482 0-0.648 0.030-1.288 0.089-1.92l-0.006 0.081c20.442-225.187 199.459-404.672 424.44-425.8 0.563-0.055 1.218-0.086 1.879-0.086 11.312 0 20.482 9.17 20.482 20.482 0 0.086-0.001 0.172-0.002 0.257v-0.013c-1.791 150.445-10.515 256.42-71.96 327.44s-169.192 97.919-354.2 100.040zM960.36 427.24c-185.553-2.028-293.587-28.866-355.24-99.88s-70.449-177.087-72.24-327.72c-0.001-0.072-0.001-0.156-0.001-0.241 0-11.312 9.17-20.482 20.482-20.482 0.648 0 1.288 0.030 1.92 0.089l-0.081-0.006c225.596 20.55 405.293 200.264 425.8 425.88 0.055 0.563 0.086 1.218 0.086 1.879 0 11.312-9.17 20.482-20.482 20.482-0.086 0-0.172-0.001-0.257-0.002h0.013zM935.92 385c-27.593-186.527-173.853-332.928-360.28-360.8 2.961 132.287 14.468 223.414 60.4 276.32 46.718 53.811 136.046 80.133 299.88 84.48zM88.080 384.96c163.243-4.44 252.216-30.763 298.76-84.56 45.764-52.895 57.282-143.947 60.24-276.040-185.82 28.327-331.461 174.5-359 360.6z" />
<glyph unicode="&#xe938;" glyph-name="soc-email" d="M116 772h792l36-36v-576l-36-36h-792l-36 36v576l36 36zM152 654.616v-458.616h720v458.628l-360.005-327.281-359.995 327.269zM814.874 700h-605.76l302.881-275.347 302.879 275.347z" />
<glyph unicode="&#xe939;" glyph-name="soc-fb" d="M269.883 414.618h112.247v-462.101c0-9.124 7.393-16.516 16.516-16.516h190.319c9.124 0 16.516 7.393 16.516 16.516v459.925h129.037c8.39 0 15.449 6.296 16.407 14.63l19.598 170.123c0.538 4.681-0.945 9.368-4.076 12.879-3.135 3.515-7.621 5.526-12.328 5.526h-148.632v106.641c0 32.147 17.309 48.448 51.451 48.448 4.866 0 97.181 0 97.181 0 9.124 0 16.516 7.396 16.516 16.516v156.157c0 9.124-7.393 16.516-16.516 16.516h-133.929c-0.945 0.046-3.042 0.122-6.134 0.122-23.238 0-104.012-4.562-167.817-63.26-70.696-65.047-60.869-142.931-58.52-156.434v-124.703h-117.836c-9.124 0-16.516-7.393-16.516-16.516v-167.949c0-9.124 7.393-16.519 16.516-16.519z" />
<glyph unicode="&#xe93a;" glyph-name="soc-gp" d="M999.619 514.992h-64.336v64.34c0 13.468-10.913 24.381-24.381 24.381h-86.851c-13.468 0-24.381-10.913-24.381-24.381v-64.34h-64.336c-13.468 0-24.381-10.913-24.381-24.381v-86.851c0-13.468 10.913-24.381 24.381-24.381h64.336v-64.34c0-13.465 10.913-24.381 24.381-24.381h86.851c13.468 0 24.381 10.916 24.381 24.381v64.34h64.336c13.468 0 24.381 10.913 24.381 24.381v86.851c0 13.468-10.913 24.381-24.381 24.381zM331.275 621.397c29.543 0 57.939-7.964 82.161-23.038l27.674-18.936c9.645-6.599 22.619-5.432 30.928 2.799l80.711 79.957c5.166 5.117 7.776 12.268 7.122 19.508-0.65 7.24-4.499 13.809-10.494 17.922l-46.909 32.17c-0.956 0.653-1.96 1.242-2.997 1.752l-45.443 22.437c-0.601 0.299-1.216 0.572-1.84 0.819-39.146 15.454-80.389 23.292-122.581 23.292-86.981 0-169.028-33.386-231.027-93.997-62.958-61.551-97.969-145.249-98.574-235.679-0.608-90.45 33.285-174.633 95.427-237.035 61.661-61.924 149.143-97.443 240.019-97.443 89.91 0 174.269 34.91 231.44 95.778 45.287 48.213 73.078 112.611 80.382 186.231 0.068 0.699 0.111 1.398 0.117 2.097l0.845 66.137c0.020 1.369-0.078 2.734-0.293 4.086l-3.543 22.603c-1.856 11.862-12.080 20.607-24.085 20.607h-281.753c-13.468 0-24.381-10.916-24.381-24.381v-97.465c0-13.465 10.913-24.381 24.381-24.381h143.64c-6.583-14.43-16.956-29.647-30.073-43.827-28.61-30.941-71.277-48.687-117.061-48.687-46.756 0-91.533 18.321-122.847 50.264-65.185 66.472-64.437 182.295 1.59 247.857 31.084 30.853 73.9 48.554 117.464 48.554z" />
<glyph unicode="&#xe93b;" glyph-name="soc-in" d="M1024-64h-204.8v358.349c0 98.304-43.366 153.139-121.139 153.139-84.634 0-134.861-57.139-134.861-153.139v-358.349h-204.8v665.6h204.8v-74.854c0 0 64.256 112.742 209.050 112.742 144.845 0 251.75-88.371 251.75-271.258v-432.23zM125.030 708.045c-69.069 0-125.030 56.422-125.030 126.003 0 69.53 55.962 125.952 125.030 125.952 69.018 0 124.979-56.422 124.979-125.952 0.051-69.581-55.962-126.003-124.979-126.003v0zM0-64h256v665.6h-256v-665.6z" />
<glyph unicode="&#xe93c;" glyph-name="soc-it" d="M512 192c-141.385 0-256 114.615-256 256s114.615 256 256 256c141.385 0 256-114.615 256-256s-114.615-256-256-256zM512 277.333c94.255 0 170.667 76.412 170.667 170.667 0 94.257-76.412 170.667-170.667 170.667-94.257 0-170.667-76.41-170.667-170.667 0-94.255 76.41-170.667 170.667-170.667zM768 746.667c-23.565 0-42.667-19.103-42.667-42.667s19.102-42.667 42.667-42.667c23.565 0 42.667 19.103 42.667 42.667s-19.102 42.667-42.667 42.667zM70.569 777.555c24.544 48.17 63.706 87.333 111.876 111.876 54.761 27.902 126.448 27.902 269.821 27.902h119.467c143.373 0 215.061 0 269.82-27.902 48.171-24.544 87.334-63.706 111.876-111.876 27.904-54.761 27.904-126.448 27.904-269.821v-119.467c0-143.373 0-215.061-27.904-269.82-24.542-48.171-63.706-87.334-111.876-111.876-54.758-27.904-126.447-27.904-269.82-27.904h-119.467c-143.373 0-215.060 0-269.821 27.904-48.17 24.542-87.333 63.706-111.876 111.876-27.902 54.758-27.902 126.447-27.902 269.82v119.467c0 143.373 0 215.060 27.902 269.821zM571.733 832h-119.467c-73.095 0-122.784-0.067-161.191-3.204-37.412-3.057-56.544-8.597-69.89-15.397-32.113-16.363-58.222-42.471-74.584-74.584-6.8-13.346-12.34-32.478-15.397-69.89-3.138-38.407-3.204-88.096-3.204-161.191v-119.467c0-73.097 0.067-122.782 3.204-161.19 3.057-37.414 8.597-56.546 15.397-69.892 16.363-32.111 42.471-58.219 74.584-74.581 13.346-6.801 32.478-12.343 69.89-15.398 38.407-3.136 88.096-3.204 161.191-3.204h119.467c73.097 0 122.782 0.068 161.19 3.204 37.414 3.055 56.546 8.597 69.892 15.398 32.111 16.363 58.219 42.47 74.581 74.581 6.801 13.346 12.343 32.478 15.398 69.892 3.136 38.409 3.204 88.094 3.204 161.19v119.467c0 73.095-0.068 122.784-3.204 161.191-3.055 37.412-8.597 56.544-15.398 69.89-16.363 32.113-42.47 58.222-74.581 74.584-13.346 6.8-32.478 12.34-69.892 15.397-38.409 3.138-88.094 3.204-161.19 3.204z" />
<glyph unicode="&#xe93d;" glyph-name="soc-lj" d="M822.598 378.339c0 0-319.942 427.496-357.901 475.396-17.002 21.455-43.085 33.123-75.053 33.123-39.401 0-87.75-17.706-139.141-56.621-93.091-70.496-117.494-146.414-80.439-198.834 37.056-52.418 360.159-478.557 360.159-478.557l340.276-143.702-47.901 369.196zM752.142 372.919c-17.398-13.341-41.078-20.509-67.58-19.962-40.907 0.819-78.954 19.625-101.774 50.309 0 0-146.024 195.079-184.101 245.943 48.117 33.068 95.119 42.297 112.509 44.695 82.024-108.862 193.615-257.788 240.945-320.985zM482.013 732.599c-28.411-6.539-71.057-20.854-114.082-51.992-42.918-31.059-69.446-72.321-84.361-102.147-11.557 15.416-22.086 29.491-31.231 41.764 10.369 24.233 34.269 69.685 77.759 101.154 56.529 40.91 113.006 48.097 123.257 49.095 8.513-11.221 18.168-23.986 28.658-37.874zM217.207 702.773c9.491 24.874 34.103 53.253 69.305 79.909 37.367 28.298 74.957 44.525 103.131 44.525 13.249 0 22.772-3.54 28.304-10.52 1.434-1.814 3.317-4.22 5.554-7.117-28.264-6.005-73.342-20.124-118.837-53.048-40.364-29.212-66.225-67.446-81.572-96.709-1.706 2.355-3.172 4.396-4.321 6.020-2.782 3.935-10.17 14.389-1.566 36.941zM313.336 538.822c7.797 19.527 27.392 60.837 63.992 93.677 32.908-43.95 143.741-191.981 184.060-245.999 20.863-27.946 29.043-65.603 22.45-103.316-4.529-25.916-15.963-48.797-30.586-61.964-48.372 63.852-158.481 209.294-239.916 317.602zM753.695 123.222l-182.976 77.271c19.565 17.275 34.146 45.543 39.825 78.024 3.997 22.851 3.368 45.755-1.506 67.212 22.443-12.292 48.217-19.346 74.981-19.883 1.097-0.021 2.184-0.031 3.275-0.031 30.219 0 57.671 8.428 78.883 23.758l25.876-199.412c-18.243-1.829-31.214-10.567-38.358-26.939z" />
<glyph unicode="&#xe93e;" glyph-name="soc-ok" d="M512.036 441.688c142.846 0 258.62 115.798 258.62 258.668-0.002 142.87-115.776 258.644-258.62 258.644-142.896 0-258.718-115.774-258.718-258.644-0.002-142.87 115.822-258.668 258.718-258.668zM512.036 827.608c70.262 0 127.224-56.964 127.224-127.25 0-70.288-56.962-127.25-127.224-127.25-70.336 0-127.276 56.962-127.276 127.25 0 70.286 56.938 127.25 127.276 127.25zM810.15 410.124c-14.57 29.342-55.016 53.744-108.788 11.402-72.682-57.238-189.328-57.238-189.328-57.238s-116.722 0-189.404 57.238c-53.746 42.342-94.166 17.94-108.762-11.402-25.5-51.126 3.268-75.852 68.192-117.522 55.442-35.606 131.642-48.904 180.822-53.87l-41.070-41.070c-57.836-57.81-113.652-113.676-152.402-152.426-23.18-23.154-23.18-60.708 0-83.862l6.96-7.012c23.18-23.154 60.708-23.154 83.886 0l152.402 152.428c57.886-57.838 113.702-113.678 152.45-152.428 23.18-23.154 60.708-23.154 83.886 0l6.96 7.012c23.18 23.18 23.18 60.708 0 83.886l-193.57 193.596c49.228 5.090 124.58 18.44 179.572 53.744 64.926 41.674 93.646 66.4 68.194 117.524z" />
<glyph unicode="&#xe93f;" glyph-name="soc-pin" d="M441.292 283.050c-26.846-140.7-59.608-275.588-156.692-346.050-29.992 212.66 43.988 372.376 78.346 541.942-58.586 98.584 7.036 296.996 130.57 248.118 152.002-60.132-131.618-366.558 58.76-404.834 198.81-39.948 279.978 344.952 156.718 470.108-178.126 180.744-518.488 4.116-476.644-254.656 10.18-63.252 75.53-82.44 26.124-169.768-114.002 25.3-148.010 115.2-143.644 235.066 7.060 196.216 176.282 333.574 346.048 352.586 214.68 24.028 416.162-78.796 443.982-280.752 31.34-227.956-96.884-474.824-326.46-457.058-62.23 4.84-88.354 35.682-137.108 65.298z" />
<glyph unicode="&#xe940;" glyph-name="soc-red" d="M667.085 307.315c-39.014 0-71.731 32.031-71.731 71.548 0 39.568 32.717 72.65 71.731 72.65 38.963 0 70.554-33.082 70.554-72.65 0-39.516-31.539-71.548-70.554-71.548zM677.018 175.11c-34.458-34.893-88.474-51.872-165.069-51.872-76.646 0-130.611 16.979-165.018 51.872-7.475 7.584-7.475 19.846 0 27.475 7.424 7.584 19.558 7.584 27.034 0 26.88-27.258 71.987-40.55 137.984-40.55 65.946 0 111.104 13.293 138.035 40.55 7.424 7.584 19.558 7.584 27.034 0 7.475-7.629 7.475-19.891 0-27.475zM286.31 378.863c0 39.516 32.666 72.65 71.629 72.65s70.554-33.133 70.554-72.65c0-39.516-31.59-71.548-70.554-71.548s-71.629 32.031-71.629 71.548zM1024 457.537c0 64.858-52.019 117.625-115.968 117.625-29.491 0-57.293-11.158-78.592-31.149-76.544 50.525-179.046 83.184-292.557 87.65l62.618 193.825 164.454-39.25c0.051-53.381 42.854-96.75 95.488-96.75s95.488 43.469 95.488 96.85c0 53.381-42.854 96.85-95.488 96.85-39.424 0-73.267-24.289-87.859-58.925-35.43 8.465-162.099 38.736-197.53 47.2l-77.312-239.4c-117.811-2.233-224.563-34.73-303.974-86.45-21.043 18.954-48.282 29.549-76.851 29.549-63.898 0-115.917-52.767-115.917-117.625 0-41.178 21.197-78.914 55.091-100.1-30.874-184.964 184.013-344.65 454.758-344.65 269.619 0 483.789 158.272 455.219 342.3 36.25 20.615 58.931 59.247 58.931 102.45z" />
<glyph unicode="&#xe941;" glyph-name="note" d="M912.96 720.96l-128 128c-4.501 4.494-10.598 7.019-16.96 7.019s-12.459-2.525-16.96-7.019l-384-384c-4.502-4.497-7.034-10.598-7.040-16.96v-128c0-6.366 2.528-12.471 7.029-16.969 4.501-4.501 10.606-7.031 16.971-7.031h128c6.362 0.004 12.463 2.539 16.96 7.040l384 384c4.493 4.5 7.019 10.6 7.019 16.96s-2.526 12.46-7.019 16.96zM502.042 344h-94.042v94.042l264 263.999 94.042-94.040-264-264zM800 641.96l-94.042 94.040 62.042 62.040 94.042-94.040-62.042-62.040zM888 480v-352c0-14.852-5.901-29.094-16.401-39.599-10.505-10.5-24.747-16.401-39.599-16.401h-640c-14.852 0-29.096 5.901-39.598 16.401-10.502 10.505-16.402 24.747-16.402 39.599v640c0 14.852 5.9 29.096 16.402 39.598s24.746 16.402 39.598 16.402h352c6.366 0 12.471-2.529 16.969-7.030 4.501-4.5 7.031-10.605 7.031-16.97s-2.53-12.47-7.031-16.971c-4.497-4.501-10.603-7.029-16.969-7.029h-352c-2.122 0-4.157-0.843-5.657-2.343s-2.343-3.535-2.343-5.657v-640c0-2.121 0.843-4.156 2.343-5.658 1.5-1.498 3.535-2.342 5.657-2.342h640c2.121 0 4.156 0.845 5.658 2.342 1.498 1.502 2.342 3.537 2.342 5.658v352c0 6.366 2.53 12.471 7.031 16.973 4.497 4.497 10.603 7.027 16.969 7.027s12.471-2.53 16.969-7.027c4.501-4.501 7.031-10.607 7.031-16.973z" />
<glyph unicode="&#xe942;" glyph-name="hash" d="M896 599.998h-204.001l35.564 195.72c0.686 3.149 0.732 6.404 0.133 9.571s-1.828 6.181-3.62 8.863c-1.787 2.682-4.096 4.975-6.794 6.744-2.693 1.769-5.714 2.977-8.888 3.552-3.169 0.575-6.426 0.506-9.569-0.204s-6.113-2.046-8.73-3.929c-2.616-1.882-4.828-4.273-6.497-7.028-1.674-2.756-2.775-5.819-3.236-9.009l-37.12-204.28h-207.241l35.56 195.72c0.892 6.154-0.639 12.413-4.271 17.461s-9.080 8.488-15.199 9.598c-6.118 1.11-12.428-0.199-17.601-3.649s-8.804-8.775-10.13-14.85l-37.12-204.28h-195.24c-6.365 0-12.47-2.528-16.971-7.029s-7.029-10.606-7.029-16.971c0-6.365 2.529-12.47 7.029-16.97s10.606-7.030 16.971-7.030h186.52l-37.84-208.001h-212.68c-6.365 0-12.47-2.529-16.971-7.030s-7.029-10.604-7.029-16.968c0-6.364 2.529-12.472 7.029-16.973s10.606-7.030 16.971-7.030h204l-35.6-195.717c-0.577-3.108-0.535-6.303 0.124-9.39 0.659-3.092 1.923-6.026 3.718-8.627s4.086-4.823 6.743-6.533c2.656-1.715 5.625-2.888 8.735-3.451 1.414-0.23 2.847-0.323 4.28-0.282 5.614 0.015 11.044 1.992 15.349 5.596s7.209 8.602 8.211 14.126l37.2 204.278h207.241l-35.564-195.717c-0.573-3.108-0.532-6.303 0.128-9.39 0.655-3.092 1.92-6.026 3.717-8.627s4.086-4.823 6.743-6.533c2.657-1.715 5.622-2.888 8.735-3.451 1.423-0.271 2.872-0.404 4.321-0.399 5.612 0.010 11.044 1.992 15.345 5.596 4.306 3.599 7.214 8.602 8.212 14.121l37.12 204.401h195.241c6.364 0 12.467 2.529 16.973 7.030 4.5 4.5 7.030 10.609 7.030 16.973s-2.529 12.467-7.030 16.968c-4.506 4.5-10.609 7.030-16.973 7.030h-186.522l37.842 208.001h212.68c6.364 0 12.467 2.529 16.973 7.030 4.5 4.5 7.030 10.605 7.030 16.97s-2.529 12.47-7.030 16.971c-4.506 4.501-10.609 7.029-16.973 7.029zM596.68 343.997h-207.2l37.84 208.001h207.202l-37.842-208.001z" />
<glyph unicode="&#xe943;" glyph-name="eye" d="M981.918 457.719c-1.357 3.119-34.637 76.92-108.958 151.241-68.962 68.88-187.439 151.040-360.96 151.040s-292.001-82.16-360.961-151.040c-74.32-74.32-107.6-147.998-108.96-151.241-1.368-3.072-2.074-6.396-2.074-9.758 0-3.366 0.707-6.69 2.074-9.762 1.36-3.081 34.64-76.881 108.96-151.198 68.96-68.881 187.44-151.002 360.961-151.002s291.998 82.121 360.96 151.002c74.321 74.317 107.601 147.998 108.958 151.198 1.37 3.072 2.074 6.396 2.074 9.762 0 3.362-0.704 6.686-2.074 9.758zM512 184c-125.521 0-235.121 45.679-325.801 135.718-38.013 37.781-70.18 81.015-95.44 128.282 25.253 47.258 57.421 90.482 95.44 128.24 90.68 90.080 200.28 135.76 325.801 135.76s235.119-45.68 325.798-135.76c38.020-37.757 70.187-80.982 95.441-128.24-25.481-48.841-153.242-264-421.239-264zM512 632c-36.39 0-71.966-10.791-102.225-31.010s-53.842-48.955-67.769-82.577c-13.926-33.621-17.57-70.618-10.47-106.308 7.1-35.695 24.624-68.48 50.357-94.212s58.518-43.255 94.213-50.355c35.691-7.1 72.687-3.456 106.308 10.47s62.357 37.508 82.577 67.767c20.22 30.259 31.010 65.835 31.010 102.225-0.064 48.781-19.469 95.545-53.965 130.037-34.492 34.493-81.254 53.899-130.035 53.963zM512 312c-26.897 0-53.193 7.974-75.558 22.921-22.365 14.942-39.796 36.186-50.090 61.035s-12.987 52.194-7.739 78.579c5.248 26.381 18.2 50.611 37.22 69.632 19.022 19.020 43.252 31.973 69.633 37.22s53.726 2.554 78.579-7.739c24.849-10.294 46.089-27.725 61.035-50.089 14.942-22.366 22.921-48.661 22.921-75.558 0-36.070-14.327-70.66-39.834-96.166s-60.096-39.834-96.166-39.834z" />
<glyph unicode="&#xe944;" glyph-name="chat" d="M528 856c-103.929-0.116-203.568-41.454-277.057-114.943s-114.827-173.128-114.943-277.057v-337.321c0.011-14.5 5.775-28.401 16.027-38.651 10.252-10.255 24.154-16.015 38.653-16.031h337.32c103.967 0 203.674 41.303 277.187 114.816s114.816 173.22 114.816 277.187c0 103.965-41.303 203.672-114.816 277.186s-173.22 114.814-277.187 114.814zM528 120.003h-337.32c-1.772 0-3.471 0.701-4.724 1.956-1.252 1.249-1.956 2.949-1.956 4.721v337.321c0 68.037 20.175 134.545 57.974 191.116s91.525 100.662 154.383 126.698c62.858 26.036 132.027 32.849 198.756 19.575s128.020-46.036 176.133-94.146c48.108-48.109 80.87-109.404 94.147-176.134 13.271-66.729 6.456-135.898-19.579-198.756-26.035-62.853-70.129-116.582-126.7-154.378-56.571-37.801-123.080-57.974-191.114-57.974zM568.003 448c0-7.91-2.35-15.647-6.743-22.221-4.398-6.579-10.644-11.709-17.951-14.735-7.311-3.026-15.355-3.82-23.112-2.273-7.762 1.541-14.887 5.35-20.482 10.947-5.594 5.591-9.403 12.718-10.947 20.48-1.543 7.757-0.751 15.801 2.276 23.11s8.154 13.556 14.732 17.952c6.576 4.395 14.312 6.741 22.223 6.741 10.609 0 20.782-4.214 28.283-11.716s11.72-17.676 11.72-28.284zM392 448c0-7.91-2.346-15.647-6.741-22.221-4.396-6.579-10.642-11.709-17.952-14.735s-15.352-3.82-23.111-2.273c-7.759 1.541-14.887 5.35-20.481 10.947-5.594 5.591-9.403 12.718-10.947 20.48-1.543 7.757-0.751 15.801 2.276 23.11s8.154 13.556 14.732 17.952c6.578 4.395 14.311 6.741 22.223 6.741 10.609 0 20.783-4.214 28.284-11.716s11.716-17.676 11.716-28.284zM743.997 448c0-7.91-2.345-15.647-6.738-22.221-4.398-6.579-10.644-11.709-17.951-14.735-7.311-3.026-15.355-3.82-23.112-2.273-7.762 1.541-14.889 5.35-20.48 10.947-5.596 5.591-9.405 12.718-10.947 20.48-1.546 7.757-0.753 15.801 2.273 23.11s8.156 13.556 14.735 17.952c6.574 4.395 14.31 6.741 22.221 6.741 10.609 0 20.782-4.214 28.283-11.716s11.715-17.676 11.715-28.284z" />
<glyph unicode="&#xe945;" glyph-name="calendar" d="M832 824h-104v40c0 6.365-2.53 12.47-7.031 16.971-4.497 4.501-10.603 7.029-16.969 7.029s-12.471-2.528-16.969-7.029c-4.501-4.501-7.031-10.606-7.031-16.971v-40h-336v40c0 6.365-2.528 12.47-7.029 16.971s-10.606 7.029-16.971 7.029c-6.365 0-12.47-2.528-16.971-7.029s-7.029-10.606-7.029-16.971v-40h-104c-14.852 0-29.096-5.9-39.598-16.402s-16.402-24.746-16.402-39.598v-640c0-14.852 5.9-29.094 16.402-39.599 10.502-10.5 24.746-16.401 39.598-16.401h640c14.852 0 29.094 5.901 39.599 16.401 10.5 10.505 16.401 24.747 16.401 39.599v640c0 14.852-5.901 29.096-16.401 39.598-10.505 10.502-24.747 16.402-39.599 16.402zM192 776h104v-40c0-6.365 2.528-12.47 7.029-16.971s10.606-7.029 16.971-7.029c6.365 0 12.47 2.528 16.971 7.029s7.029 10.606 7.029 16.971v40h336v-40c0-6.365 2.53-12.47 7.031-16.971 4.497-4.501 10.603-7.029 16.969-7.029s12.471 2.528 16.969 7.029c4.501 4.501 7.031 10.606 7.031 16.971v40h104c2.121 0 4.156-0.843 5.658-2.343 1.498-1.5 2.342-3.535 2.342-5.657v-136h-656v136c0 2.122 0.843 4.157 2.343 5.657s3.535 2.343 5.657 2.343zM832 120h-640c-2.122 0-4.157 0.845-5.657 2.342-1.501 1.502-2.343 3.537-2.343 5.658v456h656v-456c0-2.121-0.845-4.156-2.342-5.658-1.502-1.498-3.537-2.342-5.658-2.342zM672.96 464.96c4.493-4.501 7.019-10.598 7.019-16.96s-2.526-12.459-7.019-16.96l-192-192c-4.501-4.493-10.598-7.019-16.96-7.019s-12.459 2.526-16.96 7.019l-96 96c-4.239 4.548-6.547 10.569-6.438 16.785s2.628 12.151 7.025 16.546c4.397 4.399 10.33 6.916 16.547 7.027s12.235-2.197 16.785-6.438l79.040-79.002 175.040 175.002c4.501 4.493 10.598 7.019 16.96 7.019s12.459-2.526 16.96-7.019z" />
<glyph unicode="&#xe946;" glyph-name="arrow2" d="M104.003 160c0-6.364 2.528-12.472 7.029-16.973s10.606-7.030 16.971-7.030c6.365 0 12.47 2.529 16.97 7.030s7.030 10.609 7.030 16.973c0.105 95.442 38.068 186.952 105.559 254.438 67.49 67.492 158.996 105.455 254.439 105.56h326.042l-150.999-151.041c-2.36-2.196-4.25-4.844-5.56-7.788s-2.017-6.124-2.074-9.344c-0.056-3.226 0.532-6.426 1.741-9.416 1.208-2.985 3.005-5.704 5.284-7.982s4.992-4.076 7.982-5.284c2.99-1.203 6.19-1.797 9.411-1.741 3.226 0.056 6.4 0.763 9.344 2.074s5.596 3.205 7.793 5.56l192 192.001c4.495 4.5 7.020 10.6 7.020 16.96s-2.524 12.46-7.020 16.96l-192 192c-4.552 4.239-10.568 6.547-16.783 6.438-6.221-0.11-12.15-2.629-16.548-7.026s-6.917-10.33-7.025-16.547c-0.113-6.218 2.196-12.235 6.436-16.785l150.999-151.040h-326.042c-108.167-0.127-211.87-43.153-288.357-119.641s-119.514-180.188-119.641-288.358z" />
<glyph unicode="&#xe947;" glyph-name="key" d="M640 896c-50.508-0.045-100.288-12.035-145.278-34.991s-83.912-56.225-113.59-97.093c-29.678-40.868-49.27-88.177-57.176-138.061s-3.902-100.932 11.685-148.975l-230.28-230.237c-2.971-2.976-5.326-6.509-6.932-10.394s-2.431-8.045-2.428-12.25v-160c0-8.486 3.372-16.627 9.373-22.63 6.001-5.997 14.14-9.37 22.627-9.37h160c8.487 0 16.627 3.373 22.627 9.37 6.001 6.003 9.373 14.144 9.373 22.63v64h64c8.487 0 16.627 3.373 22.627 9.37 6.001 6.003 9.373 14.144 9.373 22.63v64h64c4.204-0.006 8.367 0.819 12.251 2.426s7.415 3.962 10.389 6.931l38.24 38.285c43.981-14.278 90.534-18.861 136.451-13.421 45.92 5.44 90.118 20.768 129.549 44.922 39.424 24.159 73.152 56.575 98.848 95.018 25.702 38.442 42.758 81.997 50.010 127.667s4.518 92.367-8.013 136.877c-12.525 44.511-34.554 85.779-64.563 120.96s-67.283 63.441-109.261 82.834c-41.978 19.393-87.661 29.458-133.901 29.501zM640 320c-32.394-0.058-64.5 6.068-94.6 18.040-5.889 2.556-12.409 3.281-18.715 2.083s-12.106-4.266-16.645-8.803l-43.28-43.32h-82.76c-8.487 0-16.627-3.373-22.627-9.37-6.001-6.003-9.373-14.144-9.373-22.63v-64h-64c-8.487 0-16.626-3.373-22.627-9.37-6.001-6.003-9.373-14.144-9.373-22.63v-64h-96v114.758l235.32 235.281c4.537 4.54 7.604 10.34 8.803 16.646s0.472 12.826-2.083 18.714c-20.237 50.886-23.622 106.921-9.66 159.873s44.538 100.031 87.235 134.323c42.697 34.292 95.265 53.988 149.982 56.196s108.7-13.188 154.025-43.928c45.318-30.739 79.59-75.202 97.773-126.857s19.322-107.78 3.251-160.131c-16.070-52.351-48.499-98.17-92.538-130.725-44.032-32.556-97.344-50.133-152.109-50.15zM768 656c0-9.494-2.816-18.774-8.090-26.668s-12.768-14.045-21.542-17.679c-8.768-3.633-18.419-4.584-27.731-2.732s-17.862 6.424-24.576 13.137c-6.714 6.713-11.283 15.266-13.139 24.577-1.85 9.311-0.902 18.963 2.733 27.733s9.786 16.268 17.677 21.542c7.898 5.274 17.178 8.090 26.669 8.090 12.73 0 24.941-5.057 33.939-14.059 9.005-9.002 14.061-21.211 14.061-33.941z" />
<glyph unicode="&#xe948;" glyph-name="alert" d="M897.681 543.2c-15.603 16.28-31.723 33.080-38.199 48.72-6.003 14.52-6.323 36-6.682 58.72-0.559 37.52-1.199 80-29.679 108.48s-71.121 29.12-108.48 29.68c-22.72 0.36-44.002 0.68-58.722 6.68-15.637 6.48-32.439 22.6-48.717 38.2-26.56 25.44-56.64 54.32-95.202 54.32s-68.642-28.88-95.2-54.32c-16.28-15.6-33.080-31.72-48.72-38.2-14.52-6-36-6.32-58.72-6.68-37.52-0.56-80-1.2-108.48-29.68s-29.12-71.12-29.68-108.48c-0.36-22.72-0.68-44-6.68-58.72-6.48-15.64-22.6-32.44-38.2-48.72-25.44-26.558-54.32-56.638-54.32-95.2s28.88-68.642 54.32-95.202c15.6-16.277 31.72-33.079 38.2-48.717 6-14.519 6.32-36.002 6.68-58.722 0.56-37.521 1.2-80 29.68-108.48s71.12-29.12 108.48-29.679c22.72-0.358 44-0.678 58.72-6.682 15.64-6.477 32.44-22.596 48.72-38.199 26.558-25.438 56.638-54.319 95.2-54.319s68.642 28.881 95.202 54.319c16.277 15.603 33.079 31.723 48.717 38.199 14.519 6.003 36.002 6.323 58.722 6.682 37.521 0.559 80 1.199 108.48 29.679s29.12 70.959 29.679 108.48c0.358 22.72 0.678 44.002 6.682 58.722 6.477 15.637 22.596 32.439 38.199 48.717 25.438 26.56 54.319 56.64 54.319 95.202s-28.881 68.642-54.319 95.2zM863.040 386.001c-18.679-19.439-37.999-39.599-48-63.599-9.519-22.963-9.92-50.082-10.321-76.322-0.439-29.76-0.917-60.561-15.599-75.281s-45.521-15.159-75.281-15.599c-26.24-0.401-53.359-0.802-76.318-10.321-24-9.92-44.002-29.239-63.642-48-21.001-19.998-42.718-40.96-61.961-40.96-19.238 0-40.96 20.843-61.999 40.96-19.439 18.679-39.6 38.003-63.6 48-22.96 9.519-50.080 9.92-76.32 10.321-29.76 0.439-60.56 0.922-75.28 15.599-14.72 14.682-15.16 45.521-15.6 75.281-0.4 26.24-0.8 53.359-10.32 76.322-9.92 24-29.24 43.998-48 63.637-19.96 21.001-40.8 42.722-40.8 61.961s20.84 40.96 40.96 61.999c18.68 19.439 38 39.601 48 63.601 9.52 22.96 9.92 50.080 10.32 76.32 0.44 29.76 0.92 60.56 15.6 75.28s45.52 15.16 75.28 15.6c26.24 0.4 53.36 0.8 76.32 10.32 24 9.92 44.001 29.24 63.64 48 20.919 20.040 42.641 40.88 61.879 40.88s40.96-20.84 61.999-40.96c19.439-18.68 39.599-38 63.599-48 22.963-9.52 50.082-9.92 76.322-10.32 29.76-0.44 60.561-0.92 75.281-15.6s15.159-45.52 15.599-75.28c0.401-26.24 0.802-53.36 10.321-76.32 9.92-24 29.239-44.001 48-63.64 19.998-21.001 40.96-42.718 40.96-61.961 0-19.238-20.919-40.879-41.041-61.918zM488 416v224c0 6.365 2.53 12.47 7.031 16.971 4.497 4.501 10.603 7.029 16.969 7.029s12.471-2.528 16.969-7.029c4.501-4.501 7.031-10.606 7.031-16.971v-224c0-6.366-2.53-12.471-7.031-16.969-4.497-4.501-10.603-7.031-16.969-7.031s-12.471 2.53-16.969 7.031c-4.501 4.497-7.031 10.603-7.031 16.969zM552 272c0-7.91-2.347-15.646-6.741-22.221-4.395-6.579-10.641-11.708-17.95-14.733-7.309-3.029-15.351-3.823-23.113-2.278s-14.886 5.355-20.48 10.948c-5.594 5.594-9.404 12.719-10.948 20.48s-0.751 15.804 2.278 23.113c3.025 7.309 8.154 13.555 14.733 17.95 6.575 4.395 14.31 6.741 22.221 6.741 10.607 0 20.783-4.215 28.284-11.716s11.716-17.677 11.716-28.284z" />
<glyph unicode="&#xe949;" glyph-name="badge" d="M604.44 295.48c25.219 19.32 43.75 46.058 52.99 76.454 9.238 30.395 8.722 62.923-1.478 93.010-10.2 30.088-29.571 56.222-55.392 74.731-25.819 18.51-56.79 28.466-88.56 28.466s-62.741-9.955-88.56-28.466c-25.821-18.509-45.192-44.643-55.392-74.731-10.2-30.086-10.717-62.614-1.478-93.010 9.24-30.397 27.771-57.134 52.99-76.454-47.32-17.672-88.549-48.598-118.76-89.080-3.819-5.093-5.459-11.493-4.558-17.794 0.899-6.302 4.266-11.987 9.358-15.806s11.493-5.459 17.794-4.558c6.302 0.899 11.987 4.266 15.806 9.358 20.12 26.826 46.21 48.6 76.202 63.597 29.994 14.995 63.066 22.803 96.598 22.803s66.605-7.808 96.598-22.803c29.992-14.997 56.082-36.771 76.202-63.597 3.819-5.093 9.504-8.459 15.806-9.358 6.301-0.901 12.701 0.739 17.794 4.558s8.459 9.504 9.358 15.806c0.901 6.301-0.739 12.701-4.558 17.794-30.211 40.482-71.44 71.408-118.76 89.080zM512 520c20.57 0 40.677-6.099 57.779-17.526 17.102-11.429 30.432-27.67 38.304-46.675 7.872-19.003 9.931-39.914 5.918-60.088s-13.918-38.706-28.462-53.25c-14.544-14.544-33.075-24.45-53.25-28.462s-41.085-1.954-60.088 5.918c-19.005 7.872-35.246 21.202-46.675 38.304-11.427 17.102-17.526 37.21-17.526 57.779 0 27.582 10.957 54.035 30.461 73.539s45.957 30.461 73.539 30.461zM800 856h-576c-14.853 0-29.096-5.9-39.598-16.402s-16.402-24.746-16.402-39.598v-704c0-14.853 5.899-29.096 16.402-39.598s24.746-16.402 39.598-16.402h576c14.853 0 29.096 5.901 39.598 16.402s16.402 24.746 16.402 39.598v704c0 14.852-5.901 29.096-16.402 39.598s-24.746 16.402-39.598 16.402zM808 96c0-2.122-0.843-4.157-2.342-5.658-1.501-1.499-3.536-2.342-5.658-2.342h-576c-2.122 0-4.157 0.843-5.658 2.342-1.499 1.501-2.342 3.536-2.342 5.658v704c0 2.122 0.843 4.157 2.342 5.657 1.501 1.5 3.536 2.343 5.658 2.343h576c2.122 0 4.157-0.843 5.658-2.343 1.499-1.5 2.342-3.535 2.342-5.657v-704zM360 704c0 6.365 2.528 12.47 7.029 16.971s10.606 7.029 16.971 7.029h256c6.365 0 12.47-2.528 16.971-7.029s7.029-10.606 7.029-16.971c0-6.365-2.528-12.47-7.029-16.971s-10.606-7.029-16.971-7.029h-256c-6.365 0-12.47 2.528-16.971 7.029s-7.029 10.606-7.029 16.971z" />
</font>
</defs>
</svg>
