<svg width="122" height="122" viewBox="0 0 122 122" fill="none" xmlns="http://www.w3.org/2000/svg">
<path d="M94.3333 121C94.3333 102.591 79.4095 87.6667 61 87.6667C42.5905 87.6667 27.6667 102.591 27.6667 121M94.3333 121H99.6873C107.14 121 110.867 121 113.716 119.548C116.225 118.27 118.27 116.225 119.548 113.716C121 110.867 121 107.14 121 99.6873V22.3127C121 14.86 121 11.128 119.548 8.27865C118.27 5.76982 116.225 3.73156 113.716 2.45325C110.864 1 107.135 1 99.668 1H22.3346C14.8673 1 11.1308 1 8.27865 2.45325C5.76982 3.73156 3.73156 5.76982 2.45325 8.27865C1 11.1308 1 14.8673 1 22.3346V99.668C1 107.135 1 110.864 2.45325 113.716C3.73156 116.225 5.76982 118.27 8.27865 119.548C11.128 121 14.86 121 22.3127 121H27.6667M94.3333 121H27.6667M61 67.6667C49.9543 67.6667 41 58.7124 41 47.6667C41 36.621 49.9543 27.6667 61 27.6667C72.0457 27.6667 81 36.621 81 47.6667C81 58.7124 72.0457 67.6667 61 67.6667Z" stroke="#D2D5DB" stroke-width="2" stroke-linecap="round" stroke-linejoin="round"/>
</svg>
